<?xml version="1.0" encoding="UTF-8" standalone="no"?>
<!-- Created with Inkscape (http://www.inkscape.org/) -->

<svg
   xmlns:dc="http://purl.org/dc/elements/1.1/"
   xmlns:cc="http://creativecommons.org/ns#"
   xmlns:rdf="http://www.w3.org/1999/02/22-rdf-syntax-ns#"
   xmlns:svg="http://www.w3.org/2000/svg"
   xmlns="http://www.w3.org/2000/svg"
   xmlns:xlink="http://www.w3.org/1999/xlink"
   xmlns:sodipodi="http://sodipodi.sourceforge.net/DTD/sodipodi-0.dtd"
   xmlns:inkscape="http://www.inkscape.org/namespaces/inkscape"
   sodipodi:docname="cavedog.svg"
   inkscape:version="0.92.4 (5da689c313, 2019-01-14)"
   id="svg8"
   version="1.1"
   viewBox="0 0 78.031282 75.465005"
   height="75.465004mm"
   width="78.031281mm"
   inkscape:export-filename="C:\Work\mobius.expert\mbexp\images\cavelogo.png"
   inkscape:export-xdpi="90"
   inkscape:export-ydpi="90">
  <defs
     id="defs2">
    <linearGradient
       inkscape:collect="always"
       id="linearGradient892">
      <stop
         style="stop-color:#5a2f00;stop-opacity:1;"
         offset="0"
         id="stop888" />
      <stop
         style="stop-color:#000000;stop-opacity:0.96685082"
         offset="1"
         id="stop890" />
    </linearGradient>
    <filter
       inkscape:label="Pointillism"
       style="color-interpolation-filters:sRGB"
       inkscape:menu-tooltip="Gives a turbulent pointillist HSL sensitive transparency"
       inkscape:menu="Scatter"
       height="1.2"
       width="1.2"
       y="-0.1"
       x="-0.1"
       id="filter1712">
      <feTurbulence
         seed="50"
         type="fractalNoise"
         baseFrequency="1"
         numOctaves="3"
         result="result1"
         id="feTurbulence1694" />
      <feColorMatrix
         type="luminanceToAlpha"
         in="SourceGraphic"
         result="result0"
         id="feColorMatrix1696" />
      <feColorMatrix
         result="result2"
         values="1 0 0 0 0 0 1 0 0 0 0 0 1 0 0 0 0 0 0.5 0 "
         id="feColorMatrix1698" />
      <feComposite
         result="result3"
         operator="over"
         in="result1"
         in2="result2"
         id="feComposite1700" />
      <feColorMatrix
         result="result91"
         values="1 0 0 0 0 0 1 0 0 0 0 0 1 0 0 0 0 0 5 -3.2"
         id="feColorMatrix1702" />
      <feComposite
         in2="result91"
         operator="arithmetic"
         k1="1.5"
         result="result93"
         id="feComposite1704"
         k2="0"
         k3="0"
         k4="0" />
      <feComposite
         in2="result93"
         in="SourceGraphic"
         operator="out"
         result="result4"
         id="feComposite1706" />
      <feComposite
         in2="result4"
         operator="arithmetic"
         k2="0.5"
         k1="1"
         id="feComposite1708"
         k3="0"
         k4="0" />
      <feDisplacementMap
         scale="15"
         xChannelSelector="R"
         yChannelSelector="A"
         in2="result1"
         result="result92"
         id="feDisplacementMap1710" />
    </filter>
    <linearGradient
       inkscape:collect="always"
       xlink:href="#linearGradient892"
       id="linearGradient1656-2"
       gradientUnits="userSpaceOnUse"
       gradientTransform="matrix(1,0,0,1.0656466,-115.83467,-51.344616)"
       x1="61.657356"
       y1="110.84774"
       x2="247.38907"
       y2="4.4436479" />
    <filter
       inkscape:label="Cracked Lava"
       inkscape:menu="Materials"
       inkscape:menu-tooltip="A volcanic texture, a little like leather"
       style="color-interpolation-filters:sRGB"
       id="filter2871">
      <feGaussianBlur
         result="result0"
         in="SourceGraphic"
         stdDeviation="0.5"
         id="feGaussianBlur2839" />
      <feTurbulence
         baseFrequency="0.042"
         seed="488"
         numOctaves="7"
         result="result1"
         id="feTurbulence2841" />
      <feDisplacementMap
         result="result5"
         xChannelSelector="R"
         scale="0"
         in2="result1"
         in="result1"
         yChannelSelector="G"
         id="feDisplacementMap2843" />
      <feComposite
         result="result2"
         operator="in"
         in2="result5"
         in="result0"
         id="feComposite2845" />
      <feSpecularLighting
         lighting-color="#ffe688"
         surfaceScale="2"
         result="result4"
         specularConstant="2"
         specularExponent="65"
         in="result2"
         id="feSpecularLighting2849">
        <feDistantLight
           elevation="62"
           azimuth="225"
           id="feDistantLight2847" />
      </feSpecularLighting>
      <feComposite
         k1="2.5"
         k3="1"
         k2="-0.5"
         in2="result2"
         in="result4"
         operator="arithmetic"
         result="result91"
         id="feComposite2851"
         k4="0" />
      <feBlend
         result="fbSourceGraphic"
         mode="multiply"
         in2="result91"
         id="feBlend2853" />
      <feColorMatrix
         values="1 0 0 -1 0 1 0 1 -1 0 1 0 0 -1 0 -2 -0.5 0 5 -2"
         in="fbSourceGraphic"
         result="fbSourceGraphicAlpha"
         id="feColorMatrix2855" />
      <feGaussianBlur
         stdDeviation="8"
         in="fbSourceGraphicAlpha"
         result="result0"
         id="feGaussianBlur2857" />
      <feOffset
         dx="2"
         dy="2"
         in="result0"
         result="result3"
         id="feOffset2859" />
      <feSpecularLighting
         in="result0"
         result="result1"
         lighting-color="#ffffff"
         surfaceScale="4"
         specularConstant="0.80000001"
         specularExponent="15"
         id="feSpecularLighting2863">
        <fePointLight
           x="-5000"
           y="-10000"
           z="20000"
           id="fePointLight2861" />
      </feSpecularLighting>
      <feComposite
         in2="fbSourceGraphicAlpha"
         in="result1"
         result="result2"
         operator="in"
         id="feComposite2865" />
      <feComposite
         in="fbSourceGraphic"
         result="result4"
         operator="arithmetic"
         k2="2"
         k3="2"
         in2="result2"
         id="feComposite2867"
         k1="0"
         k4="0" />
      <feBlend
         mode="darken"
         in2="result4"
         id="feBlend2869" />
    </filter>
    <filter
       height="1.3"
       width="1.3"
       y="-0.15000001"
       x="-0.15000001"
       inkscape:menu-tooltip="Van Gogh painting effect for bitmaps"
       inkscape:menu="Distort"
       inkscape:label="Pixel Smear"
       style="color-interpolation-filters:sRGB"
       id="filter2983">
      <feTurbulence
         type="fractalNoise"
         numOctaves="3"
         baseFrequency="0.25 0.4"
         seed="5"
         id="feTurbulence2965" />
      <feColorMatrix
         result="result5"
         values="1 0 0 0 0 0 1 0 0 0 0 0 1 0 0 0 0 0 1 0 "
         id="feColorMatrix2967" />
      <feComposite
         in="SourceGraphic"
         operator="in"
         in2="result5"
         id="feComposite2969" />
      <feMorphology
         operator="dilate"
         radius="1.5"
         result="result3"
         id="feMorphology2971" />
      <feTurbulence
         numOctaves="5"
         baseFrequency="0.03"
         type="fractalNoise"
         seed="7"
         id="feTurbulence2973" />
      <feGaussianBlur
         stdDeviation="0.5"
         result="result91"
         id="feGaussianBlur2975" />
      <feDisplacementMap
         in="result3"
         xChannelSelector="R"
         yChannelSelector="G"
         scale="27"
         result="result4"
         in2="result91"
         id="feDisplacementMap2977" />
      <feComposite
         in="result4"
         k3="0.8"
         k1="1.3"
         result="result2"
         operator="arithmetic"
         in2="result4"
         id="feComposite2979"
         k2="0"
         k4="0" />
      <feBlend
         in2="result2"
         mode="screen"
         in="result2"
         id="feBlend2981" />
    </filter>
    <filter
       inkscape:label="Silhouette"
       inkscape:menu="Distort"
       inkscape:menu-tooltip="Roughen all inside shapes"
       style="color-interpolation-filters:sRGB"
       id="filter6935">
      <feTurbulence
         type="fractalNoise"
         baseFrequency="0.1"
         numOctaves="3"
         result="result7"
         id="feTurbulence6917" />
      <feColorMatrix
         values="0"
         result="result8"
         type="saturate"
         id="feColorMatrix6919" />
      <feColorMatrix
         values="1 0 0 0 0 0 1 0 0 0 0 0 1 0 0 0 0 0 20 -12 "
         result="result6"
         type="matrix"
         id="feColorMatrix6921" />
      <feGaussianBlur
         stdDeviation="2"
         result="result5"
         in="result6"
         id="feGaussianBlur6923" />
      <feColorMatrix
         in="result5"
         values="1 0 0 0 0 0 1 0 0 0 0 0 1 0 0 0 0 0 10 -0.1 "
         result="result0"
         type="matrix"
         id="feColorMatrix6925" />
      <feComposite
         k1="0.8"
         k2="1"
         in2="SourceGraphic"
         operator="arithmetic"
         result="result3"
         in="result0"
         id="feComposite6927"
         k3="0"
         k4="0" />
      <feComposite
         operator="atop"
         in2="result8"
         id="feComposite6929" />
      <feBlend
         mode="normal"
         in2="SourceGraphic"
         result="result9"
         id="feBlend6931" />
      <feComposite
         in="result9"
         in2="SourceGraphic"
         operator="atop"
         result="fbSourceGraphic"
         id="feComposite6933" />
      <feColorMatrix
         result="fbSourceGraphicAlpha"
         in="fbSourceGraphic"
         values="0 0 0 -1 0 0 0 0 -1 0 0 0 0 -1 0 0 0 0 1 0"
         id="feColorMatrix6955" />
      <feColorMatrix
         id="feColorMatrix6957"
         result="result6"
         values="2 -1 0 0 0 0 2 -1 0 0 -1 0 2 0 0 0 0 0 1 0 "
         in="fbSourceGraphic" />
      <feTurbulence
         id="feTurbulence6959"
         type="fractalNoise"
         baseFrequency="0.05"
         numOctaves="3" />
      <feColorMatrix
         id="feColorMatrix6961"
         values="1 0 0 0 0 0 1 0 0 0 0 0 1 0 0 0 0 0 3 -1 "
         result="result0" />
      <feFlood
         id="feFlood6963"
         result="result1"
         flood-color="rgb(146,144,165)"
         flood-opacity="1" />
      <feBlend
         in2="result6"
         id="feBlend6965"
         result="result2"
         in="result1"
         mode="multiply" />
      <feComposite
         in2="result0"
         id="feComposite6967"
         result="result3"
         operator="out" />
      <feComposite
         in2="result6"
         id="feComposite6969"
         result="fbSourceGraphic"
         operator="atop" />
      <feGaussianBlur
         id="feGaussianBlur6971"
         in="fbSourceGraphic"
         stdDeviation="2"
         result="result3" />
      <feGaussianBlur
         id="feGaussianBlur6973"
         result="result4"
         in="fbSourceGraphic"
         stdDeviation="0.01" />
      <feBlend
         in2="result3"
         id="feBlend6975"
         mode="darken" />
      <feColorMatrix
         id="feColorMatrix6977"
         type="hueRotate"
         values="0" />
      <feComponentTransfer
         id="feComponentTransfer6979"
         result="result1">
        <feFuncR
           id="feFuncR6981"
           type="discrete"
           tableValues="0 0.2 0.4 0.6 0.8 1 1" />
        <feFuncG
           id="feFuncG6983"
           type="discrete"
           tableValues="0 0.2 0.4 0.6 0.8 1 1" />
        <feFuncB
           id="feFuncB6985"
           type="discrete"
           tableValues="0 0.2 0.4 0.6 0.8 1 1" />
      </feComponentTransfer>
      <feColorMatrix
         id="feColorMatrix6987"
         values="1"
         type="saturate" />
      <feGaussianBlur
         id="feGaussianBlur6989"
         result="result5"
         stdDeviation="0.01" />
      <feComposite
         in2="fbSourceGraphic"
         id="feComposite6991"
         operator="in"
         result="fbSourceGraphic" />
      <feColorMatrix
         result="fbSourceGraphicAlpha"
         in="fbSourceGraphic"
         values="0 0 0 -1 0 0 0 0 -1 0 0 0 0 -1 0 0 0 0 1 0"
         id="feColorMatrix6993" />
      <feTurbulence
         id="feTurbulence6995"
         type="fractalNoise"
         baseFrequency="0.02 0.04"
         numOctaves="5"
         seed="1"
         result="turbulence" />
      <feComposite
         in2="turbulence"
         id="feComposite6997"
         in="fbSourceGraphic"
         operator="in"
         result="composite1" />
      <feColorMatrix
         id="feColorMatrix6999"
         values="1 0 0 0 0 0 1 0 0 0 0 0 1 0 0 0 0 0 3 -1 "
         result="color" />
      <feFlood
         id="feFlood7001"
         flood-opacity="1"
         flood-color="rgb(21,40,57)"
         result="flood" />
      <feMerge
         id="feMerge7003"
         result="merge">
        <feMergeNode
           id="feMergeNode7005"
           in="flood" />
        <feMergeNode
           id="feMergeNode7007"
           in="color" />
      </feMerge>
      <feComposite
         in2="fbSourceGraphic"
         id="feComposite7009"
         operator="in"
         result="fbSourceGraphic" />
      <feColorMatrix
         result="fbSourceGraphicAlpha"
         in="fbSourceGraphic"
         values="0 0 0 -1 0 0 0 0 -1 0 0 0 0 -1 0 0 0 0 1 0"
         id="feColorMatrix7497" />
      <feTurbulence
         id="feTurbulence7499"
         numOctaves="5"
         seed="0"
         type="fractalNoise"
         baseFrequency="0.08" />
      <feGaussianBlur
         id="feGaussianBlur7501"
         stdDeviation="0.5"
         result="result91" />
      <feDisplacementMap
         in2="result91"
         id="feDisplacementMap7503"
         scale="20"
         yChannelSelector="G"
         xChannelSelector="R"
         in="fbSourceGraphic"
         result="result1" />
      <feComposite
         in2="fbSourceGraphic"
         id="feComposite7505"
         in="result1"
         operator="atop"
         result="fbSourceGraphic" />
      <feColorMatrix
         result="fbSourceGraphicAlpha"
         in="fbSourceGraphic"
         values="0 0 0 -1 0 0 0 0 -1 0 0 0 0 -1 0 0 0 0 1 0"
         id="feColorMatrix7527" />
      <feFlood
         id="feFlood7529"
         flood-opacity="1"
         flood-color="rgb(0,0,0)"
         result="flood"
         in="fbSourceGraphic" />
      <feComposite
         in2="fbSourceGraphic"
         id="feComposite7531"
         in="flood"
         operator="in"
         result="composite" />
      <feGaussianBlur
         id="feGaussianBlur7533"
         stdDeviation="0.01" />
    </filter>
  </defs>
  <sodipodi:namedview
     id="base"
     pagecolor="#ffffff"
     bordercolor="#666666"
     borderopacity="1.0"
     inkscape:pageopacity="0.0"
     inkscape:pageshadow="2"
     inkscape:zoom="5.33"
     inkscape:cx="125.84403"
     inkscape:cy="121.27691"
     inkscape:document-units="mm"
     inkscape:current-layer="g7625"
     showgrid="false"
     inkscape:window-width="1920"
     inkscape:window-height="1027"
     inkscape:window-x="-8"
     inkscape:window-y="-8"
     inkscape:window-maximized="1"
     inkscape:snap-global="false" />
  <metadata
     id="metadata5">
    <rdf:RDF>
      <cc:Work
         rdf:about="">
        <dc:format>image/svg+xml</dc:format>
        <dc:type
           rdf:resource="http://purl.org/dc/dcmitype/StillImage" />
        <dc:title></dc:title>
      </cc:Work>
    </rdf:RDF>
  </metadata>
  <g
     inkscape:label="Layer 1"
     inkscape:groupmode="layer"
     id="layer1"
     transform="translate(0.47625704,-146.99799)">
    <path
       style="fill:#e5e5e5;fill-opacity:0.99607843;fill-rule:evenodd;stroke:none;stroke-width:0.12042178px;stroke-linecap:butt;stroke-linejoin:miter;stroke-opacity:1"
       d="m 25.115522,158.97474 12.432055,15.4975 -3.406042,17.54111 1.703021,3.91695 2.213927,8.68541 -7.322991,2.04363 -2.043625,-11.92115 4.08725,-18.05202 -11.580544,-17.03022 z"
       id="path7577"
       inkscape:connector-curvature="0"
       sodipodi:nodetypes="cccccccccc" />
    <path
       style="fill:#323232;fill-opacity:0.98823529;fill-rule:evenodd;stroke:none;stroke-width:0.12042178px;stroke-linecap:butt;stroke-linejoin:miter;stroke-opacity:1"
       d="m 9.3742481,208.94138 -7.981263,-27.30085 19.2736189,-22.70858 5.173586,19.30809 v 16.85283 l -8.567459,14.83928 z"
       id="path3113"
       inkscape:connector-curvature="0"
       sodipodi:nodetypes="ccccccc" />
    <path
       style="fill:#585858;fill-opacity:0.99607843;fill-rule:evenodd;stroke:none;stroke-width:0.12042178px;stroke-linecap:butt;stroke-linejoin:miter;stroke-opacity:1"
       d="m 20.666604,158.93195 12.912423,16.77302 -3.612653,18.54495 -12.693643,15.68223 6.43171,-18.93362 -0.633952,-14.68524 z"
       id="path3115"
       inkscape:connector-curvature="0"
       sodipodi:nodetypes="ccccccc" />
    <path
       style="fill:#1c1c1c;fill-opacity:0.99607843;fill-rule:evenodd;stroke:none;stroke-width:0.12042178px;stroke-linecap:butt;stroke-linejoin:miter;stroke-opacity:1"
       d="m 17.272731,209.93215 14.981657,-3.15836 -2.288014,-12.52387 3.612653,-18.54495 -10.089729,5.51336 z"
       id="path3117"
       inkscape:connector-curvature="0"
       sodipodi:nodetypes="cccccc" />
    <g
       id="g7625"
       transform="rotate(-4.5492759,36.066098,197.54294)">
      <path
         sodipodi:nodetypes="cscccc"
         style="fill:none;fill-rule:evenodd;stroke:#fffdfd;stroke-width:0.91027492;stroke-linecap:butt;stroke-linejoin:miter;stroke-miterlimit:4;stroke-dasharray:none;stroke-opacity:1"
         d="m 2.9517736,186.42247 c 1.887244,-0.54139 6.0148581,-1.50862 7.1176784,-6.51498 l 1.337543,-6.07191 2.846427,5.44622 0.666324,-6.39166 4.217456,7.85642"
         id="path3119"
         inkscape:connector-curvature="0" />
      <path
         sodipodi:nodetypes="ccccccccc"
         style="fill:none;fill-rule:evenodd;stroke:#fffdfd;stroke-width:0.91027492;stroke-linecap:round;stroke-linejoin:miter;stroke-miterlimit:4;stroke-dasharray:none;stroke-opacity:1"
         d="m 19.243607,180.89701 c 1.404436,0.4658 10.944394,7.25787 10.944394,7.25787 l -5.028958,3.18817 -3.301957,3.17617 -0.302691,-4.15294 -4.138021,2.24159 0.489927,-2.88683 -7.861767,4.23329 c -2.8671421,1.6819 -5.2619672,5.38614 -6.6793903,10.9086"
         id="path3125"
         inkscape:connector-curvature="0"
         inkscape:export-filename="C:\Work\mobius.expert\mbexp\images\path3125.png"
         inkscape:export-xdpi="90"
         inkscape:export-ydpi="90" />
      <circle
         r="0.95017362"
         cy="184.58528"
         cx="17.230885"
         id="path3167"
         style="opacity:1;fill:none;fill-opacity:0.99607843;stroke:#fffdfd;stroke-width:0.75604367;stroke-linecap:round;stroke-miterlimit:4;stroke-dasharray:none;stroke-dashoffset:0;stroke-opacity:1" />
    </g>
    <path
       style="opacity:1;fill:#1c1c1c;fill-opacity:0.99607843;stroke:#efefef;stroke-width:0.91027492;stroke-linecap:round;stroke-miterlimit:4;stroke-dasharray:none;stroke-dashoffset:0;stroke-opacity:1"
       id="path7543"
       d="m 40.352753,174.49815 c 2.41e-4,0.27211 -0.02997,0.54322 -0.06227,0.81306 -0.04692,0.27646 -0.08267,0.5545 -0.122758,0.83199 -0.02243,0.29679 -0.06348,0.58999 -0.109971,0.88385 -0.0496,0.28512 -0.101707,0.57 -0.141593,0.85667 -0.02132,0.28708 -0.05065,0.57043 -0.110627,0.85232 -0.06091,0.25332 -0.08528,0.51288 -0.124595,0.76994 -0.0201,0.25936 -0.0818,0.51211 -0.123326,0.76835 -0.03808,0.24926 -0.06647,0.49974 -0.09955,0.74964 -0.02935,0.27389 -0.06087,0.54618 -0.110377,0.81727 -0.0529,0.28359 -0.09339,0.56908 -0.136727,0.85422 -0.04049,0.26264 -0.05248,0.52822 -0.05945,0.79348 -0.0045,0.24066 -0.0041,0.48136 -0.0038,0.72205 -0.0029,0.25201 -0.02294,0.50471 -0.05151,0.75515 -0.0388,0.24861 -0.08162,0.4957 -0.105819,0.74636 -0.0169,0.23685 -0.02103,0.47377 -0.04091,0.71044 -0.02396,0.24128 -0.03312,0.48353 -0.03834,0.72582 -0.01821,0.25583 -0.03852,0.51144 -0.07216,0.76573 -0.02784,0.19795 -0.04129,0.39739 -0.04828,0.59702 -0.0045,0.17029 -0.0041,0.34065 -0.0041,0.51098 1.21e-4,0.15318 3.62e-4,0.30636 5.01e-4,0.45953 0.0057,0.14 2.41e-4,0.27593 -0.03049,0.41271 -0.07201,0.28919 -0.481,0.18736 -0.408987,-0.10184 v 0 c 0.03142,-0.10056 0.01405,-0.20673 0.01801,-0.31057 -1.1e-4,-0.1532 -3.61e-4,-0.30641 -5.01e-4,-0.45962 -8.4e-5,-0.17536 -5e-4,-0.35074 0.0043,-0.52605 0.0076,-0.21318 0.02202,-0.42614 0.05167,-0.63752 0.03171,-0.23896 0.05035,-0.47914 0.0686,-0.71948 0.0055,-0.25104 0.01502,-0.50204 0.03972,-0.75205 0.02008,-0.23842 0.02319,-0.4772 0.0414,-0.71577 0.02465,-0.2532 0.06629,-0.50314 0.106643,-0.7541 0.02749,-0.2341 0.04536,-0.47067 0.04872,-0.70627 -2.41e-4,-0.24455 -7.29e-4,-0.48913 0.004,-0.73365 0.0075,-0.28274 0.02086,-0.56577 0.06409,-0.84569 0.04398,-0.28929 0.08517,-0.57893 0.138809,-0.86665 0.04836,-0.26437 0.07824,-0.52994 0.107185,-0.79704 0.03391,-0.25391 0.06242,-0.5085 0.101342,-0.76177 0.04162,-0.25497 0.10279,-0.5063 0.122704,-0.76442 0.04059,-0.26524 0.06602,-0.53305 0.129082,-0.79441 0.0586,-0.27199 0.08288,-0.54541 0.105339,-0.82237 0.04048,-0.28918 0.09241,-0.57667 0.142727,-0.86428 0.04622,-0.29208 0.08648,-0.58327 0.109126,-0.87827 0.03963,-0.27409 0.07465,-0.54878 0.121411,-0.8218 0.03032,-0.25322 0.05943,-0.50761 0.05928,-0.76296 0,-0.29803 0.421476,-0.29803 0.421476,0 z"
       inkscape:connector-curvature="0" />
    <path
       style="opacity:1;fill:#1c1c1c;fill-opacity:0.99607843;stroke:#efefef;stroke-width:0.91027492;stroke-linecap:round;stroke-miterlimit:4;stroke-dasharray:none;stroke-dashoffset:0;stroke-opacity:1"
       id="path7551"
       d="m 38.852048,190.06277 c 0.05828,0.17496 0.15899,0.32978 0.240883,0.49367 0.07167,0.17188 0.175013,0.32588 0.273123,0.48315 0.106587,0.16952 0.242354,0.31754 0.378672,0.46319 0.147128,0.16366 0.33459,0.28213 0.512815,0.40839 0.171608,0.10384 0.349356,0.19686 0.518993,0.30386 0.176745,0.10634 0.362341,0.19858 0.547261,0.29016 0.227819,0.10394 0.446734,0.22419 0.66556,0.34537 0.232753,0.14922 0.469972,0.29204 0.688219,0.46216 0.192168,0.15251 0.379541,0.31113 0.573895,0.46089 0.17601,0.15206 0.354911,0.30054 0.528148,0.45576 0.127836,0.11939 0.254096,0.24232 0.399366,0.34058 0.163173,0.10781 0.323865,0.21723 0.473695,0.34358 0.164237,0.14968 0.277053,0.34306 0.427084,0.50537 0.140815,0.13954 0.293763,0.26852 0.451637,0.38853 0.145211,0.1021 0.276218,0.22141 0.409328,0.33827 0.137674,0.11262 0.279436,0.21971 0.42843,0.31697 0.162311,0.10424 0.323302,0.21689 0.503268,0.28878 0.158461,0.0782 0.319161,0.15118 0.477066,0.23054 0.18596,0.0909 0.363027,0.19799 0.544117,0.29786 0.170572,0.08 0.333383,0.17951 0.507232,0.25215 0.163558,0.0511 0.320922,0.12023 0.474991,0.1947 0.112501,0.0668 0.240399,0.0853 0.363882,0.12029 0.169216,0.048 0.340384,0.091 0.506149,0.15008 0.05058,0.0215 0.102698,0.0381 0.155708,0.0522 0.28731,0.0792 0.1753,0.48552 -0.112014,0.40632 v 0 c -0.0638,-0.018 -0.127252,-0.0368 -0.188404,-0.0627 -0.156031,-0.0594 -0.321382,-0.0929 -0.480849,-0.14172 -0.144096,-0.0457 -0.297632,-0.0639 -0.429331,-0.14573 -0.147469,-0.0729 -0.30014,-0.13521 -0.456594,-0.18626 -0.185427,-0.0812 -0.362458,-0.18161 -0.544394,-0.27034 -0.176325,-0.0973 -0.348736,-0.20169 -0.529785,-0.2903 -0.148821,-0.0748 -0.300436,-0.1433 -0.449352,-0.21785 -0.202587,-0.0861 -0.38993,-0.20294 -0.572509,-0.3254 -0.165419,-0.10852 -0.323475,-0.22721 -0.476001,-0.35316 -0.125654,-0.1108 -0.249492,-0.22345 -0.386917,-0.31989 -0.17711,-0.13602 -0.350093,-0.28 -0.506852,-0.43912 -0.136643,-0.15095 -0.247451,-0.32211 -0.38889,-0.4685 -0.138213,-0.11875 -0.289731,-0.21712 -0.440739,-0.31826 -0.157813,-0.11109 -0.302048,-0.2391 -0.440715,-0.37324 -0.165423,-0.14848 -0.336764,-0.2899 -0.504331,-0.43593 -0.195009,-0.15082 -0.383857,-0.30943 -0.576644,-0.46303 -0.199236,-0.15795 -0.420171,-0.28516 -0.632156,-0.42496 -0.21312,-0.11814 -0.426357,-0.23526 -0.648382,-0.33636 -0.198115,-0.0982 -0.396784,-0.1974 -0.585885,-0.31189 -0.175103,-0.11175 -0.361433,-0.20461 -0.536946,-0.31591 -0.201451,-0.14275 -0.411091,-0.27893 -0.576978,-0.46438 -0.154878,-0.1657 -0.307838,-0.33498 -0.42846,-0.52804 -0.105193,-0.16868 -0.215265,-0.33473 -0.292931,-0.51861 -0.0846,-0.17131 -0.190621,-0.33247 -0.250861,-0.51524 -0.117399,-0.27394 0.269999,-0.43996 0.387398,-0.16603 z"
       inkscape:connector-curvature="0" />
    <path
       style="opacity:1;fill:#1c1c1c;fill-opacity:0.99607843;stroke:#efefef;stroke-width:0.91027492;stroke-linecap:round;stroke-miterlimit:4;stroke-dasharray:none;stroke-dashoffset:0;stroke-opacity:1"
       id="path7553"
       d="m 48.777835,198.01673 c -0.240149,-0.15564 -0.477849,-0.31419 -0.705372,-0.48788 -0.269004,-0.21756 -0.562691,-0.40158 -0.827158,-0.62448 -0.176902,-0.15762 -0.338358,-0.33127 -0.501734,-0.50255 -0.116984,-0.1196 -0.249129,-0.22453 -0.379334,-0.32968 -0.142468,-0.11574 -0.251778,-0.26332 -0.380418,-0.39286 -0.113047,-0.10662 -0.234382,-0.20379 -0.350997,-0.30662 -0.05072,-0.0542 -0.109607,-0.10011 -0.169935,-0.14321 -0.240691,-0.17575 0.0079,-0.51614 0.248551,-0.34038 v 0 c 0.06989,0.0517 0.140469,0.10481 0.200551,0.16782 0.123302,0.10926 0.25277,0.21124 0.371265,0.32577 0.117726,0.1191 0.219176,0.2527 0.346469,0.36213 0.1437,0.11695 0.289968,0.23296 0.418836,0.36612 0.153094,0.16051 0.30425,0.32335 0.469228,0.4719 0.257708,0.21978 0.54885,0.39608 0.810664,0.6112 0.212394,0.16265 0.434975,0.30999 0.658493,0.45678 0.258763,0.14786 0.04965,0.51381 -0.209109,0.36594 z"
       inkscape:connector-curvature="0" />
    <path
       style="opacity:1;fill:#1c1c1c;fill-opacity:0.99607843;stroke:#f0f0f0;stroke-width:0.91027492;stroke-linecap:round;stroke-miterlimit:4;stroke-dasharray:none;stroke-dashoffset:0;stroke-opacity:0.99607843"
       id="path7555"
       d="m 39.969922,174.00605 c 0.07419,-0.20619 0.169652,-0.40312 0.268919,-0.59808 0.09618,-0.18962 0.212093,-0.36955 0.336453,-0.54185 0.102616,-0.1669 0.23705,-0.30888 0.357904,-0.4617 0.09937,-0.12456 0.20897,-0.23996 0.314796,-0.35882 0.103505,-0.12385 0.218185,-0.2376 0.32394,-0.35937 0.127614,-0.12867 0.246956,-0.2639 0.364578,-0.40142 0.09817,-0.11766 0.195082,-0.23573 0.28417,-0.36052 0.101174,-0.12828 0.194464,-0.26236 0.296169,-0.39024 0.10798,-0.12683 0.219272,-0.24976 0.31578,-0.38559 0.09541,-0.15204 0.210645,-0.29017 0.315156,-0.43572 0.103753,-0.13876 0.190335,-0.28895 0.289459,-0.4308 0.129109,-0.14336 0.254297,-0.28998 0.380568,-0.43583 0.120948,-0.1547 0.247141,-0.30492 0.374066,-0.45477 0.109265,-0.11455 0.213077,-0.2344 0.326082,-0.3453 0.114415,-0.0974 0.224868,-0.19538 0.330266,-0.30226 0.11903,-0.10951 0.226669,-0.22861 0.330855,-0.35197 0.109759,-0.114 0.194538,-0.24719 0.294072,-0.36946 0.12742,-0.15389 0.250935,-0.3111 0.378938,-0.46482 0.124458,-0.16744 0.256197,-0.32909 0.382976,-0.49473 0.09623,-0.12651 0.181445,-0.26013 0.270415,-0.39168 0.09798,-0.12056 0.17719,-0.25419 0.269086,-0.37913 0.08053,-0.1034 0.141266,-0.21923 0.210638,-0.32989 0.09557,-0.12089 0.196337,-0.23812 0.298347,-0.35379 0.10506,-0.1158 0.205345,-0.23569 0.306112,-0.35526 0.10855,-0.13967 0.216877,-0.27938 0.318792,-0.424 0.125195,-0.18233 0.281038,-0.34026 0.428275,-0.50444 0.139668,-0.14214 0.279418,-0.28404 0.426327,-0.41876 0.131453,-0.11145 0.238438,-0.24594 0.353128,-0.37357 0.127661,-0.13359 0.247026,-0.27467 0.375229,-0.40772 0.07416,-0.11134 0.202595,-0.1722 0.285649,-0.27316 0.08453,-0.084 0.164837,-0.17172 0.241787,-0.2627 0.102756,-0.10159 0.182929,-0.22156 0.278408,-0.32955 0.09212,-0.11663 0.186756,-0.23122 0.287392,-0.34076 0.102965,-0.10819 0.212444,-0.21041 0.312875,-0.32092 0.078,-0.0781 0.03896,-0.0399 0.116988,-0.11452 0.215558,-0.2058 0.506609,0.099 0.291052,0.30485 v 0 c -0.06715,0.064 -0.03455,0.0323 -0.09784,0.095 -0.101878,0.1098 -0.209354,0.21432 -0.313685,0.3218 -0.100135,0.10725 -0.19093,0.22226 -0.283178,0.33614 -0.0946,0.10278 -0.169657,0.22266 -0.270324,0.32028 -0.08071,0.0953 -0.164746,0.18764 -0.253261,0.2757 -0.09387,0.0981 -0.208103,0.17357 -0.293031,0.28098 -0.125277,0.12868 -0.239944,0.26714 -0.364666,0.3964 -0.123806,0.13758 -0.240276,0.28202 -0.381778,0.4025 -0.136873,0.12533 -0.266715,0.25764 -0.397303,0.38941 -0.136327,0.15201 -0.281398,0.29765 -0.397722,0.46611 -0.109074,0.15428 -0.224296,0.30388 -0.340848,0.45257 -0.102847,0.12199 -0.205381,0.24416 -0.312374,0.36252 -0.08715,0.0987 -0.171187,0.2001 -0.257608,0.29933 -0.07567,0.11974 -0.141735,0.24544 -0.229458,0.35733 -0.09,0.11825 -0.162393,0.24945 -0.258095,0.36368 -0.09375,0.13807 -0.183707,0.27834 -0.284642,0.41142 -0.130302,0.17024 -0.265455,0.33658 -0.393831,0.50833 -0.127202,0.15265 -0.250326,0.30849 -0.376444,0.46179 -0.101464,0.1235 -0.186634,0.25949 -0.298406,0.37468 -0.111186,0.13164 -0.22624,0.2589 -0.352878,0.37608 -0.107629,0.10894 -0.219389,0.21026 -0.336683,0.30862 -0.104604,0.0999 -0.196683,0.21236 -0.298129,0.31541 -0.128189,0.15112 -0.255116,0.30299 -0.377545,0.45882 -0.117444,0.13428 -0.229991,0.27282 -0.353752,0.40157 -0.100934,0.14262 -0.186532,0.29567 -0.292443,0.43499 -0.104575,0.1445 -0.218335,0.28262 -0.313688,0.43368 -0.101183,0.14181 -0.215444,0.27216 -0.329466,0.40374 -0.09759,0.12224 -0.186317,0.2511 -0.283568,0.3736 -0.09677,0.13395 -0.200187,0.2622 -0.306345,0.38875 -0.118667,0.13824 -0.238052,0.27523 -0.367008,0.40423 -0.107428,0.12275 -0.222387,0.23863 -0.327541,0.36345 -0.100913,0.11226 -0.204285,0.2221 -0.298872,0.33995 -0.117693,0.14749 -0.247167,0.28525 -0.346621,0.44683 -0.112206,0.15398 -0.215556,0.31595 -0.302105,0.48571 -0.09507,0.18673 -0.186251,0.3753 -0.257113,0.57288 -0.1174,0.27393 -0.504798,0.1079 -0.387399,-0.16603 z"
       inkscape:connector-curvature="0" />
    <path
       style="opacity:1;fill:#1c1c1c;fill-opacity:0.99607843;stroke:#efefef;stroke-width:0.91027492;stroke-linecap:round;stroke-miterlimit:4;stroke-dasharray:none;stroke-dashoffset:0;stroke-opacity:1"
       id="path7557"
       d="m 28.886006,156.55294 c 0.229898,0.16434 0.247435,0.69579 0.435279,0.90548 0.177182,0.21301 0.527814,1.00432 0.692275,1.2273 0.137241,0.19724 0.268569,0.39862 0.416158,0.58833 0.136687,0.1948 0.269467,0.39256 0.413819,0.58181 0.147869,0.19329 0.287732,0.39215 0.431193,0.5887 0.142854,0.21437 0.289441,0.42679 0.441655,0.63473 0.119805,0.17353 0.263448,0.32833 0.392108,0.49515 0.136405,0.17954 0.266113,0.36409 0.394894,0.54916 0.158883,0.20916 0.298222,0.43009 0.43346,0.65482 0.125076,0.21455 0.243938,0.43265 0.359262,0.65267 0.104712,0.24226 0.246725,0.46497 0.3869,0.68769 0.140948,0.22378 0.281262,0.44792 0.420182,0.67297 0.100056,0.17297 0.181333,0.35593 0.284837,0.52699 0.08506,0.16131 0.173239,0.32123 0.266674,0.47783 0.103941,0.20153 0.208493,0.40281 0.318386,0.60122 0.107309,0.17723 0.204131,0.35948 0.296478,0.5448 0.07274,0.14098 0.128614,0.28862 0.185884,0.43623 0.06459,0.13731 0.120226,0.27686 0.16757,0.42107 0.04399,0.10462 0.09703,0.20469 0.148155,0.30586 0.13429,0.26606 -0.241974,0.45597 -0.376263,0.18992 v 0 c -0.06049,-0.12001 -0.123742,-0.2387 -0.17234,-0.36431 -0.04505,-0.13723 -0.09898,-0.26924 -0.160099,-0.40019 -0.05253,-0.13561 -0.102813,-0.27136 -0.170166,-0.40065 -0.0896,-0.17992 -0.183729,-0.3567 -0.288024,-0.5287 -0.107617,-0.19475 -0.211226,-0.39173 -0.311988,-0.59006 -0.09242,-0.15629 -0.181837,-0.31463 -0.265466,-0.47581 -0.10183,-0.17019 -0.185888,-0.34971 -0.282296,-0.52282 -0.138263,-0.22403 -0.277936,-0.44713 -0.418246,-0.66987 -0.14602,-0.23207 -0.293742,-0.46445 -0.403492,-0.71652 -0.111468,-0.2127 -0.226085,-0.4237 -0.3471,-0.63104 -0.130405,-0.21681 -0.264702,-0.42984 -0.418307,-0.63142 -0.124873,-0.17958 -0.25069,-0.35861 -0.382944,-0.53283 -0.13029,-0.16983 -0.277347,-0.32632 -0.39824,-0.50332 -0.152177,-0.20817 -0.299192,-0.42054 -0.441957,-0.63515 -0.141719,-0.19431 -0.279783,-0.39092 -0.426086,-0.58184 -0.143185,-0.18847 -0.276751,-0.38404 -0.411396,-0.57866 -0.149366,-0.19283 -0.284124,-0.3961 -0.422583,-0.59683 -0.156191,-0.21245 -0.318616,-0.42069 -0.486331,-0.62415 -0.169167,-0.18922 -0.346979,-0.37053 -0.55473,-0.51821 -0.238424,-0.17882 0.01446,-1.41916 0.252885,-1.24035 z"
       inkscape:connector-curvature="0"
       sodipodi:nodetypes="cccccccccccccccccccccccccccccccccccccccccc" />
    <path
       style="opacity:1;fill:#1c1c1c;fill-opacity:0.99607843;stroke:#efefef;stroke-width:0.91027492;stroke-linecap:round;stroke-miterlimit:4;stroke-dasharray:none;stroke-dashoffset:0;stroke-opacity:1"
       id="path7559"
       d="m 35.514316,168.10538 c 0.06193,-0.18693 0.12389,-0.37373 0.18748,-0.56037 0.06611,-0.18315 0.1251,-0.3689 0.197239,-0.5498 0.05954,-0.18047 0.139032,-0.34947 0.236897,-0.51218 0.08453,-0.16801 0.181978,-0.32846 0.288517,-0.48331 0.09411,-0.13336 0.174333,-0.27449 0.258581,-0.41399 0.08306,-0.15247 0.163251,-0.3063 0.25191,-0.45562 0.09038,-0.17578 0.200214,-0.3411 0.306586,-0.50754 0.0947,-0.16148 0.169485,-0.33224 0.269669,-0.49077 0.08358,-0.17355 0.191311,-0.33372 0.289529,-0.49893 0.100989,-0.18155 0.218678,-0.35233 0.335276,-0.524 0.117032,-0.1584 0.219911,-0.32684 0.319895,-0.49636 0.0994,-0.16347 0.213195,-0.31812 0.304762,-0.48632 0.09805,-0.1428 0.174418,-0.29787 0.265667,-0.44479 0.0809,-0.15273 0.174688,-0.29631 0.276754,-0.43545 0.121651,-0.16553 0.237688,-0.33444 0.359221,-0.50005 0.168214,-0.20715 0.31102,-0.43297 0.471809,-0.64553 0.111687,-0.16065 0.230319,-0.31657 0.349626,-0.47167 0.135989,-0.19701 0.301591,-0.37036 0.457955,-0.55077 0.156964,-0.16435 0.312329,-0.32895 0.449616,-0.51023 0.08202,-0.10101 0.16647,-0.20226 0.23796,-0.31112 0.100224,-0.14388 0.196356,-0.29135 0.307797,-0.42682 0.09954,-0.12828 0.215515,-0.2428 0.30816,-0.37628 0.09385,-0.13487 0.209757,-0.25079 0.331651,-0.35996 0.22287,-0.19786 0.502693,0.11732 0.279823,0.31518 v 0 c -0.09874,0.0866 -0.191172,0.18 -0.267061,0.28773 -0.10115,0.14178 -0.220233,0.26822 -0.329342,0.40381 -0.105267,0.12246 -0.188273,0.2634 -0.282954,0.39401 -0.07863,0.11268 -0.161599,0.22306 -0.25018,0.32809 -0.143045,0.18847 -0.302776,0.3616 -0.467056,0.53173 -0.151109,0.17414 -0.311212,0.34139 -0.442409,0.53176 -0.118895,0.15427 -0.236705,0.30963 -0.347959,0.46949 -0.160284,0.20997 -0.299933,0.43534 -0.467641,0.63994 -0.121508,0.16558 -0.237691,0.3344 -0.359183,0.5 -0.09569,0.13043 -0.182572,0.26548 -0.258625,0.40864 -0.08735,0.14042 -0.159484,0.28935 -0.254248,0.42526 -0.09488,0.17141 -0.207868,0.33139 -0.311191,0.49761 -0.104648,0.17713 -0.212134,0.35326 -0.334249,0.519 -0.11206,0.1648 -0.225438,0.32842 -0.321933,0.50306 -0.100815,0.16843 -0.209039,0.33277 -0.295883,0.50925 -0.101438,0.15798 -0.1706,0.33243 -0.270164,0.49154 -0.104181,0.16285 -0.211607,0.32456 -0.299894,0.49672 -0.09006,0.14942 -0.167838,0.30543 -0.253095,0.45758 -0.08881,0.14645 -0.17363,0.29475 -0.272214,0.43508 -0.102176,0.14776 -0.193282,0.30198 -0.274817,0.46212 -0.08714,0.14316 -0.15415,0.29162 -0.206438,0.45114 -0.07029,0.17358 -0.125023,0.35302 -0.189453,0.52881 -0.06718,0.19676 -0.131279,0.39401 -0.198993,0.59034 -0.117399,0.27393 -0.504797,0.1079 -0.387398,-0.16603 z"
       inkscape:connector-curvature="0" />
    <path
       style="opacity:1;fill:#1c1c1c;fill-opacity:0.99607843;stroke:#efefef;stroke-width:0.91027492;stroke-linecap:round;stroke-miterlimit:4;stroke-dasharray:none;stroke-dashoffset:0;stroke-opacity:1"
       id="path7561"
       d="m 42.962041,156.42679 c 0.283251,0.0858 0.569617,0.16293 0.849258,0.25999 0.268385,0.0951 0.541955,0.1748 0.811473,0.2671 0.215883,0.0786 0.419334,0.1867 0.632709,0.27096 0.159817,0.0719 0.321422,0.13943 0.480675,0.21257 0.15482,0.0847 0.311155,0.16624 0.467271,0.24856 0.138585,0.0838 0.282969,0.15683 0.425331,0.23373 0.151725,0.0824 0.292922,0.17995 0.432972,0.28036 0.153072,0.10289 0.309325,0.19956 0.472337,0.28585 0.182961,0.10388 0.3668,0.20624 0.549447,0.31073 0.18028,0.11365 0.367783,0.21438 0.552487,0.32046 0.181508,0.10997 0.362753,0.22139 0.549979,0.32146 0.15593,0.0758 0.302511,0.16582 0.448478,0.25876 0.140793,0.0808 0.280825,0.16254 0.43052,0.226 0.177367,0.0774 0.361019,0.1385 0.540953,0.20953 0.134839,0.0703 0.28467,0.097 0.429136,0.14005 0.106625,0.0199 0.206573,0.0635 0.311905,0.0878 0.01306,0.002 0.02617,0.004 0.03923,0.007 0.293455,0.052 0.219886,0.46703 -0.07357,0.41501 v 0 c -0.02144,-0.004 -0.04292,-0.008 -0.06435,-0.0118 -0.112387,-0.0278 -0.219786,-0.0705 -0.333466,-0.0936 -0.155993,-0.0464 -0.317827,-0.0766 -0.463648,-0.15198 -0.183944,-0.0726 -0.371752,-0.13503 -0.552951,-0.21449 -0.16978,-0.074 -0.330931,-0.16381 -0.490415,-0.25773 -0.136938,-0.0875 -0.274294,-0.17213 -0.421107,-0.24272 -0.190544,-0.10259 -0.376048,-0.21475 -0.560748,-0.32744 -0.184349,-0.10607 -0.371701,-0.20655 -0.551717,-0.32002 -0.178747,-0.10226 -0.358653,-0.20242 -0.537627,-0.30422 -0.17957,-0.0954 -0.352094,-0.20176 -0.520509,-0.3157 -0.125645,-0.0901 -0.251595,-0.17856 -0.387982,-0.25221 -0.140869,-0.0765 -0.284279,-0.14821 -0.421339,-0.2316 -0.149321,-0.0788 -0.299089,-0.15654 -0.446681,-0.23841 -0.152626,-0.0703 -0.307712,-0.13467 -0.460749,-0.20402 -0.206492,-0.083 -0.404981,-0.1846 -0.613199,-0.26373 -0.270254,-0.0927 -0.544694,-0.17236 -0.81382,-0.26791 -0.263702,-0.0928 -0.53503,-0.16267 -0.801713,-0.24645 -0.290931,-0.0647 -0.1995,-0.47609 0.09143,-0.41144 z"
       inkscape:connector-curvature="0" />
    <path
       style="opacity:1;fill:#1c1c1c;fill-opacity:0.99607843;stroke:#efefef;stroke-width:0.91027492;stroke-linecap:round;stroke-miterlimit:4;stroke-dasharray:none;stroke-dashoffset:0;stroke-opacity:1"
       id="path7565"
       d="m 35.759627,195.88415 c 0.235693,0.10729 0.449413,0.25409 0.662113,0.40009 0.320759,0.24883 0.654064,0.4809 0.982571,0.7193 0.35337,0.24793 0.717008,0.48047 1.083466,0.70839 0.270483,0.18407 0.559492,0.33736 0.83755,0.50932 0.237553,0.13112 0.472696,0.26657 0.706485,0.40428 0.204804,0.10694 0.400689,0.2276 0.597565,0.34797 0.184778,0.13755 0.380731,0.25927 0.565026,0.3972 0.183638,0.12852 0.358256,0.26919 0.536219,0.40528 0.21086,0.17092 0.393863,0.37179 0.581888,0.56652 0.150428,0.13492 0.274286,0.29293 0.402864,0.44736 0.101889,0.13224 0.206126,0.26197 0.311688,0.39123 0.09922,0.10482 0.196012,0.2116 0.294012,0.31751 0.09615,0.0942 0.188743,0.19167 0.288862,0.28177 0.07742,0.0819 0.15698,0.16133 0.232271,0.24517 0.198978,0.22188 -0.114799,0.50328 -0.313779,0.2814 v 0 c -0.06525,-0.0729 -0.134913,-0.14117 -0.200709,-0.21353 -0.109547,-0.0989 -0.211468,-0.20532 -0.3164,-0.30899 -0.103515,-0.11257 -0.207087,-0.22482 -0.310979,-0.33706 -0.104636,-0.12872 -0.208833,-0.25726 -0.309792,-0.38894 -0.120831,-0.14694 -0.238777,-0.29559 -0.381308,-0.42323 -0.173347,-0.17969 -0.341803,-0.36515 -0.53479,-0.52451 -0.177052,-0.13563 -0.351004,-0.27548 -0.533788,-0.40345 -0.172429,-0.13123 -0.359431,-0.24258 -0.53167,-0.37447 -0.194416,-0.1196 -0.388622,-0.238 -0.591087,-0.34407 -0.236407,-0.13925 -0.474365,-0.27586 -0.714282,-0.40899 -0.278328,-0.17216 -0.567774,-0.32546 -0.838449,-0.50987 -0.374967,-0.23322 -0.746989,-0.47127 -1.108413,-0.72517 -0.325517,-0.23623 -0.656023,-0.46595 -0.973542,-0.71293 -0.189956,-0.13039 -0.379916,-0.26269 -0.589619,-0.36018 -0.273933,-0.1174 -0.107904,-0.5048 0.166027,-0.3874 z"
       inkscape:connector-curvature="0" />
    <path
       style="opacity:1;fill:#1c1c1c;fill-opacity:0.99607843;stroke:#efefef;stroke-width:0.91027492;stroke-linecap:round;stroke-miterlimit:4;stroke-dasharray:none;stroke-dashoffset:0;stroke-opacity:1"
       id="path7567"
       d="m 43.568576,201.95942 c 0.159661,-0.18178 0.351209,-0.3298 0.534764,-0.48572 0.180952,-0.14791 0.374306,-0.28222 0.574519,-0.40273 0.167398,-0.10872 0.342485,-0.2037 0.508403,-0.31483 0.179685,-0.12409 0.357885,-0.2504 0.536031,-0.37688 0.173152,-0.13588 0.360746,-0.25221 0.533475,-0.38854 0.178587,-0.14892 0.368712,-0.2769 0.574356,-0.38469 0.204489,-0.10402 0.422272,-0.17724 0.630643,-0.2724 0.206647,-0.0955 0.417143,-0.18303 0.627403,-0.27067 0.186274,-0.0837 0.386052,-0.12636 0.579044,-0.18902 0.194954,-0.067 0.393111,-0.1218 0.595802,-0.15917 0.116129,-0.0262 0.233836,-0.0443 0.349245,-0.0734 0.289327,-0.0715 0.390454,0.33765 0.101132,0.40916 v 0 c -0.124089,0.0302 -0.249766,0.0521 -0.374642,0.0789 -0.185314,0.0334 -0.365835,0.0854 -0.544012,0.14626 -0.182173,0.0569 -0.368793,0.0996 -0.544586,0.17642 -0.20615,0.0857 -0.412545,0.17131 -0.614936,0.26524 -0.201626,0.0913 -0.411035,0.16409 -0.609693,0.26217 -0.183056,0.0956 -0.351098,0.21014 -0.509809,0.34301 -0.178882,0.13935 -0.370236,0.26153 -0.549464,0.40046 -0.181313,0.12867 -0.362868,0.25686 -0.54551,0.38343 -0.172107,0.11518 -0.353288,0.21423 -0.527069,0.32662 -0.18123,0.10664 -0.353751,0.23066 -0.517684,0.36212 -0.165301,0.14005 -0.337808,0.27273 -0.483626,0.43412 -0.190794,0.22895 -0.51458,-0.0409 -0.323786,-0.26982 z"
       inkscape:connector-curvature="0" />
    <path
       style="opacity:1;fill:#1c1c1c;fill-opacity:0.99607843;stroke:#efefef;stroke-width:0.91027492;stroke-linecap:round;stroke-miterlimit:4;stroke-dasharray:none;stroke-dashoffset:0;stroke-opacity:1"
       id="path7573"
       d="m 43.169023,202.31964 c 0.250989,-0.18178 0.512875,-0.34819 0.774645,-0.51397 0.284259,-0.16418 0.564031,-0.33558 0.845139,-0.50497 0.221049,-0.13313 0.433804,-0.27941 0.649485,-0.42095 0.200319,-0.14332 0.408076,-0.27656 0.606884,-0.42186 0.178073,-0.13722 0.36949,-0.2543 0.569637,-0.35617 0.163909,-0.0774 0.325241,-0.15968 0.482992,-0.24937 0.16491,-0.0983 0.342145,-0.17335 0.512325,-0.26143 0.168183,-0.0973 0.352199,-0.15409 0.537636,-0.20774 0.174286,-0.0512 0.336943,-0.13206 0.510245,-0.18598 0.206501,-0.0507 0.406015,-0.12535 0.610536,-0.1845 0.206614,-0.0505 0.407343,-0.12058 0.610657,-0.18217 0.127999,-0.0447 0.257795,-0.0815 0.375571,-0.15013 0.1187,-0.057 0.221201,-0.13899 0.330275,-0.21104 0.05138,-0.0392 0.103412,-0.0762 0.152139,-0.11873 0.226963,-0.19315 0.500123,0.12783 0.273159,0.32098 v 0 c -0.06379,0.0534 -0.128931,0.10373 -0.196815,0.15193 -0.118545,0.0731 -0.225111,0.16654 -0.353236,0.22483 -0.146159,0.0796 -0.300933,0.13508 -0.459216,0.18563 -0.20498,0.0617 -0.407161,0.13281 -0.615423,0.18358 -0.202523,0.0586 -0.400353,0.13206 -0.604741,0.18278 -0.175829,0.052 -0.338222,0.14133 -0.516244,0.18775 -0.159722,0.046 -0.317864,0.0924 -0.462106,0.17779 -0.165561,0.0844 -0.336529,0.15871 -0.496874,0.25309 -0.163681,0.0926 -0.330821,0.17825 -0.500555,0.25878 -0.180594,0.0908 -0.351799,0.19749 -0.511984,0.32093 -0.204899,0.14853 -0.417252,0.28691 -0.623643,0.43345 -0.220255,0.14449 -0.437497,0.29385 -0.66331,0.42963 -0.278513,0.16753 -0.555254,0.33783 -0.837027,0.49997 -0.255163,0.16159 -0.510631,0.32351 -0.755172,0.50086 -0.242516,0.17322 -0.487494,-0.16975 -0.244979,-0.34297 z"
       inkscape:connector-curvature="0" />
    <path
       style="opacity:1;fill:#1c1c1c;fill-opacity:0.99607843;stroke:#efefef;stroke-width:0.91027492;stroke-linecap:round;stroke-miterlimit:4;stroke-dasharray:none;stroke-dashoffset:0;stroke-opacity:1"
       id="path7575"
       d="m 35.721081,196.56554 c 0.09592,0.20481 0.186696,0.41223 0.258021,0.62698 0.05313,0.15274 0.104294,0.30446 0.171798,0.45135 0.0759,0.13733 0.115659,0.2901 0.183808,0.43102 0.07405,0.18311 0.155016,0.36247 0.233924,0.5435 0.09018,0.17346 0.156888,0.35688 0.223461,0.54026 0.06997,0.20387 0.112483,0.41711 0.146076,0.62977 0.06366,0.19768 0.102079,0.40085 0.143671,0.6038 0.04138,0.21601 0.09262,0.43021 0.145898,0.64358 0.07163,0.23386 0.131693,0.4707 0.192564,0.70746 0.06772,0.20334 0.116863,0.41099 0.144058,0.62345 0.0011,0.16899 0.05438,0.32333 0.107275,0.48097 0.05906,0.16518 0.104439,0.33213 0.129815,0.50578 0.01251,0.17185 0.06077,0.33807 0.103765,0.50418 0.04567,0.19405 0.08286,0.39048 0.116319,0.58706 0.02629,0.15538 0.02851,0.31282 0.05613,0.4678 0.05185,0.29349 -0.363203,0.36681 -0.41505,0.0733 v 0 c -0.02739,-0.15618 -0.03331,-0.31399 -0.05665,-0.47077 -0.0311,-0.18483 -0.06648,-0.3694 -0.108815,-0.55192 -0.04677,-0.1811 -0.09833,-0.36265 -0.112913,-0.54983 -0.0208,-0.14864 -0.06178,-0.29026 -0.112195,-0.43156 -0.06158,-0.18355 -0.121272,-0.36672 -0.125884,-0.56256 -0.02385,-0.19507 -0.0731,-0.38434 -0.134089,-0.57107 -0.06101,-0.23777 -0.12182,-0.47542 -0.193301,-0.71037 -0.05455,-0.21925 -0.107372,-0.43925 -0.149883,-0.66117 -0.04268,-0.20956 -0.08563,-0.41809 -0.147171,-0.62325 -0.0285,-0.18594 -0.06602,-0.37236 -0.125802,-0.55084 -0.06362,-0.17525 -0.127155,-0.35041 -0.213786,-0.51598 -0.0768,-0.177 -0.156589,-0.35211 -0.22835,-0.53124 -0.06691,-0.14341 -0.111956,-0.29541 -0.185854,-0.43539 -0.07415,-0.16137 -0.131206,-0.32783 -0.189189,-0.49563 -0.06619,-0.20354 -0.155403,-0.39857 -0.245055,-0.59267 -0.117399,-0.27393 0.269999,-0.43996 0.387398,-0.16603 z"
       inkscape:connector-curvature="0" />
    <path
       style="opacity:1;fill:#000000;fill-opacity:0.99607843;stroke:none;stroke-width:0.91027492;stroke-linecap:round;stroke-miterlimit:4;stroke-dasharray:none;stroke-dashoffset:0;stroke-opacity:0.99607843"
       id="path7581"
       d="m 21.373214,159.50564 c -0.151424,0.18 -0.311018,0.35306 -0.445166,0.54672 -0.106641,0.17249 -0.229477,0.33314 -0.353692,0.49312 -0.125471,0.14594 -0.243016,0.29768 -0.356605,0.45296 -0.129516,0.17007 -0.265386,0.33571 -0.411734,0.49159 -0.147035,0.14446 -0.287021,0.29559 -0.433532,0.44053 -0.16069,0.15371 -0.318016,0.31072 -0.468408,0.47452 -0.188411,0.18782 -0.354106,0.39659 -0.529922,0.596 -0.177915,0.19747 -0.354381,0.3956 -0.519945,0.60357 -0.132204,0.15851 -0.267056,0.31447 -0.398341,0.47383 -0.121525,0.15124 -0.251355,0.29537 -0.384455,0.43642 -0.11601,0.12586 -0.243766,0.24062 -0.356972,0.369 -0.130658,0.14348 -0.268425,0.28026 -0.400634,0.42225 -0.115087,0.12098 -0.214676,0.25509 -0.321331,0.38331 -0.134456,0.14791 -0.248971,0.31198 -0.372082,0.46908 -0.195645,0.23453 -0.383407,0.47444 -0.583632,0.70512 -0.223994,0.27225 -0.456466,0.53705 -0.696494,0.79521 -0.166697,0.18057 -0.321081,0.37019 -0.465608,0.56864 -0.130592,0.17822 -0.268658,0.35051 -0.410021,0.52024 -0.147804,0.15878 -0.278675,0.33145 -0.415622,0.49924 -0.09888,0.15712 -0.222213,0.29681 -0.324619,0.45134 -0.124496,0.17656 -0.269461,0.33692 -0.400029,0.50875 -0.130675,0.16094 -0.261717,0.32094 -0.394793,0.47995 -0.125522,0.14968 -0.249562,0.30043 -0.373749,0.45122 -0.13247,0.15178 -0.260011,0.30727 -0.388729,0.46212 -0.130146,0.1601 -0.270637,0.31142 -0.406314,0.46692 -0.112451,0.17941 -0.239362,0.34534 -0.379962,0.50333 -0.155526,0.16256 -0.316805,0.31926 -0.4730819,0.48105 -0.1636997,0.16279 -0.3178443,0.3338 -0.4681039,0.50889 -0.1116242,0.13343 -0.2205477,0.26974 -0.3263572,0.40791 -0.1255383,0.17264 -0.2698933,0.32987 -0.4163297,0.48471 -0.1540231,0.17746 -0.3237812,0.34028 -0.4915562,0.50452 -0.1495304,0.1458 -0.2979007,0.29279 -0.4459514,0.4401 -0.1566533,0.15353 -0.3072046,0.31333 -0.4693737,0.46108 -0.1268846,0.10449 -0.2363912,0.22767 -0.349034,0.34684 -0.1300792,0.14614 -0.2931313,0.25625 -0.4390812,0.38502 -0.1288207,0.12094 -0.2510456,0.2487 -0.3747957,0.37477 -0.1451574,0.12516 -0.2833403,0.2555 -0.4141136,0.3955 -0.1146924,0.15281 -0.2322985,0.30284 -0.3558925,0.44871 -0.1666162,0.20832 -0.3646543,0.3862 -0.5671181,0.55847 -0.1506855,0.11938 -0.3059525,0.23252 -0.4544966,0.35501 -0.1271936,0.11173 -0.2503809,0.22802 -0.3711257,0.34701 -0.1245286,0.12479 -0.2622501,0.23489 -0.3859366,0.36061 -0.1021962,0.10428 -0.1957929,0.2163 -0.2858141,0.33113 -0.076727,0.11042 -0.1435152,0.22692 -0.2189448,0.33806 -0.1047931,0.1504 -0.2046738,0.30403 -0.3113177,0.45316 -0.1231054,0.16186 -0.258457,0.31459 -0.3949622,0.46533 -0.1108477,0.12769 -0.2378195,0.23907 -0.3568661,0.35865 -0.1017068,0.0913 -0.2053435,0.18019 -0.2971232,0.28165 -0.026738,0.0399 -0.010927,0.0167 -0.047881,0.0692 -0.2456086,0.34777 -0.73742966,4.5e-4 -0.491821,-0.34735 v 0 c 0.057228,-0.0808 0.025952,-0.0382 0.094467,-0.1272 0.098391,-0.10757 0.2054178,-0.20641 0.3159474,-0.3014 0.1124784,-0.11269 0.2321867,-0.2177 0.337103,-0.33787 0.1212244,-0.13369 0.2414808,-0.26906 0.3517809,-0.41182 0.1053266,-0.14649 0.2028125,-0.29825 0.3062758,-0.44602 0.085645,-0.11759 0.15024,-0.2504 0.2395754,-0.36599 0.1046483,-0.13337 0.2139752,-0.26321 0.332797,-0.38426 0.126279,-0.12589 0.2625035,-0.24051 0.3901374,-0.36479 0.1335919,-0.1316 0.2709228,-0.25863 0.4109896,-0.38293 0.1463732,-0.12036 0.2988098,-0.23249 0.4475924,-0.34925 0.1778381,-0.15049 0.3518685,-0.30554 0.4973514,-0.48863 0.129934,-0.15335 0.2506843,-0.31313 0.3753751,-0.4706 0.1340994,-0.14343 0.2739809,-0.27967 0.4243247,-0.40616 0.1345167,-0.13705 0.2672403,-0.27611 0.4083516,-0.40644 0.1326061,-0.11504 0.2779547,-0.21615 0.3976486,-0.34518 0.123365,-0.13051 0.2440073,-0.26465 0.3824957,-0.37959 0.1561808,-0.14022 0.2977463,-0.29591 0.4488019,-0.44155 0.1492137,-0.14847 0.29875,-0.29661 0.4494519,-0.44356 0.1622979,-0.15887 0.326654,-0.31622 0.4754189,-0.48811 0.1324946,-0.13991 0.2634403,-0.28168 0.3765343,-0.43813 0.1129696,-0.14615 0.2276424,-0.29145 0.346558,-0.43275 0.1579691,-0.18406 0.320176,-0.36381 0.4920255,-0.53515 0.1506327,-0.15583 0.3057172,-0.30712 0.456319,-0.46297 0.04043,-0.0454 0.083712,-0.0884 0.1217896,-0.13578 0.09253,-0.11519 0.159282,-0.24951 0.254245,-0.3631 0.132695,-0.15207 0.270271,-0.2999 0.397455,-0.45654 0.128399,-0.15361 0.254507,-0.30885 0.386536,-0.45947 0.125308,-0.15209 0.250468,-0.30414 0.377043,-0.45518 0.127409,-0.1518 0.25275,-0.30456 0.377572,-0.45842 0.124192,-0.16219 0.259594,-0.31522 0.379751,-0.48052 0.11517,-0.16837 0.24491,-0.32591 0.357824,-0.49592 0.138693,-0.16845 0.269503,-0.34344 0.418809,-0.50309 0.133089,-0.15959 0.262966,-0.3216 0.385854,-0.48924 0.15868,-0.21788 0.328524,-0.42596 0.511419,-0.62422 0.235418,-0.25306 0.462979,-0.513 0.682691,-0.77985 0.193695,-0.22314 0.375108,-0.4553 0.564566,-0.68202 0.126851,-0.16159 0.244677,-0.33053 0.383115,-0.48273 0.114176,-0.13702 0.220761,-0.28045 0.344353,-0.4094 0.129626,-0.13807 0.263259,-0.27231 0.391225,-0.41196 0.118311,-0.13137 0.246749,-0.25292 0.368279,-0.38131 0.123944,-0.13122 0.244789,-0.26534 0.357785,-0.4062 0.129261,-0.15654 0.26161,-0.31016 0.391814,-0.46578 0.171904,-0.21582 0.354655,-0.42185 0.539379,-0.62675 0.178737,-0.20262 0.347226,-0.41476 0.538657,-0.6057 0.157246,-0.17023 0.320155,-0.33493 0.487968,-0.49478 0.14151,-0.13977 0.276283,-0.28595 0.418464,-0.4251 0.129809,-0.13736 0.249001,-0.28451 0.364127,-0.4343 0.116986,-0.15992 0.237667,-0.31664 0.367038,-0.4668 0.11816,-0.15208 0.234925,-0.30451 0.335829,-0.46889 0.139473,-0.19796 0.297069,-0.38115 0.456871,-0.56289 0.255453,-0.3406 0.737141,0.0207 0.481688,0.36127 z"
       inkscape:connector-curvature="0" />
    <path
       style="opacity:1;fill:#000000;fill-opacity:0.99607843;stroke:none;stroke-width:0.91027492;stroke-linecap:round;stroke-miterlimit:4;stroke-dasharray:none;stroke-dashoffset:0;stroke-opacity:0.99607843"
       id="path7601"
       d="m 31.559426,151.70403 c 0.45114,0.85097 0.966902,1.66364 1.427638,2.50913 0.386226,0.82168 0.799804,1.62781 1.227283,2.42856 0.339174,0.56844 0.584024,1.17018 0.710495,1.81886 0.02626,0.38695 0.134978,0.74856 0.270117,1.10809 0.09557,0.18477 0.162298,0.38221 0.243931,0.57286 0.01467,0.0343 0.06999,0.1316 0.05093,0.0996 -0.215436,-0.36207 0.069,-0.094 -0.716973,-0.39924 -0.103991,0.0365 -0.205116,0.0825 -0.311976,0.10945 -0.07082,0.0179 0.02686,-0.0883 0.108543,-0.24302 0.192978,-0.36564 0.378269,-0.73659 0.570781,-1.1029 0.762431,-1.50676 1.683536,-2.92631 2.613213,-4.33355 1.131934,-1.68001 2.337783,-3.30778 3.585587,-4.90303 0.522463,-0.69347 1.085206,-1.35454 1.641567,-2.02045 0.77241,-0.92387 2.078951,0.16849 1.306541,1.09235 v 0 c -0.544983,0.65143 -1.095436,1.29876 -1.606834,1.97751 -1.220252,1.55922 -2.398839,3.15071 -3.5061,4.79262 -0.898886,1.35948 -1.790123,2.73074 -2.526517,4.18693 -0.139513,0.26537 -0.284417,0.52792 -0.422105,0.79425 -0.165966,0.32103 -0.348555,0.79541 -0.635604,1.03423 -0.152481,0.12686 -0.345577,0.19481 -0.518365,0.29222 -0.28342,-0.0693 -0.587484,-0.0811 -0.850261,-0.20793 -0.300659,-0.14508 -0.461323,-0.85771 -0.620743,-1.14336 -0.169182,-0.45122 -0.3092,-0.91046 -0.349742,-1.39361 -0.08315,-0.48004 -0.294238,-0.91047 -0.538949,-1.33005 -0.425045,-0.79677 -0.839215,-1.59778 -1.220792,-2.41651 -0.443139,-0.81607 -0.94497,-1.59733 -1.37582,-2.42037 -0.638234,-1.02118 0.805924,-1.92378 1.444158,-0.9026 z"
       inkscape:connector-curvature="0" />
    <path
       style="opacity:1;fill:#000000;fill-opacity:0.99607843;stroke:none;stroke-width:0.91027492;stroke-linecap:round;stroke-miterlimit:4;stroke-dasharray:none;stroke-dashoffset:0;stroke-opacity:0.99607843"
       id="path7603"
       d="m -0.22204668,176.44802 c 0.88467062,-0.89035 1.74248018,-1.80092 2.52893318,-2.7797 0.9975539,-1.27712 2.0040397,-2.54701 3.0081512,-3.819 1.0456961,-1.40698 2.1128505,-2.79578 3.2150424,-4.15898 0.9673778,-1.19539 2.0157129,-2.32096 3.0823259,-3.42742 1.032027,-1.00314 2.10143,-1.96761 3.159154,-2.94383 0.803506,-0.78208 1.617661,-1.55307 2.422442,-2.33385 0.613654,-0.59631 1.213552,-1.20782 1.861664,-1.76693 0.553682,-0.45565 1.106812,-0.91207 1.683871,-1.33797 0.645278,-0.48881 1.291281,-0.97662 1.936796,-1.46516 0.587124,-0.38204 1.106,-0.85215 1.654275,-1.28377 0.426425,-0.33113 0.853903,-0.65217 1.260655,-1.00797 0.347734,-0.32305 0.714459,-0.62473 1.070824,-0.93812 0.904417,-0.79509 2.028846,0.48395 1.12443,1.27904 v 0 c -0.358545,0.31511 -0.727198,0.61874 -1.077056,0.94357 -0.431215,0.37394 -0.882689,0.71761 -1.332853,1.06742 -0.559761,0.42834 -1.074961,0.91744 -1.672573,1.29781 -0.651639,0.49314 -1.303738,0.98557 -1.9552,1.4789 -0.544669,0.39928 -1.06259,0.83286 -1.585539,1.25987 -0.625855,0.53061 -1.190478,1.12923 -1.783449,1.69563 -0.814939,0.79061 -1.639162,1.57152 -2.453249,2.363 -1.033413,0.95378 -2.077593,1.8967 -3.088181,2.87439 -1.03241,1.07067 -2.047615,2.15943 -2.9840471,3.31616 -1.0980683,1.35802 -2.160178,2.74229 -3.2026249,4.14344 -1.0075114,1.27625 -2.017283,2.5505 -3.018358,3.8318 -0.8055564,0.99865 -1.6745183,1.93689 -2.5825798,2.84309 -0.80003874,0.90005 -2.0728927,-0.23138 -1.27285388,-1.13142 z"
       inkscape:connector-curvature="0" />
    <path
       style="opacity:1;fill:#1c1c1c;fill-opacity:0.99607843;stroke:#efefef;stroke-width:0.91027492;stroke-linecap:round;stroke-miterlimit:4;stroke-dasharray:none;stroke-dashoffset:0;stroke-opacity:1"
       id="path7563"
       d="m 28.898955,156.83704 c -0.209081,0.0811 -0.406648,0.18728 -0.601239,0.29805 -0.169085,0.10177 -0.339601,0.20115 -0.508875,0.30273 -0.149416,0.0833 -0.306351,0.15244 -0.453392,0.23997 -0.156843,0.0896 -0.331108,0.14228 -0.497791,0.21076 -0.240603,0.102 -0.488269,0.18494 -0.735129,0.27008 -0.263187,0.0755 -0.52047,0.16937 -0.781306,0.25213 -0.219244,0.0655 -0.437535,0.13087 -0.659041,0.18874 -0.202818,0.052 -0.402542,0.11538 -0.602396,0.17768 -0.187704,0.0581 -0.384132,0.0734 -0.574008,0.12292 -0.162113,0.0489 -0.316584,0.11791 -0.478968,0.16587 -0.159001,0.032 -0.313375,0.0771 -0.466985,0.12844 -0.165568,0.0396 -0.322658,0.10263 -0.481315,0.16353 -0.07795,0.0347 -0.154401,0.0726 -0.231857,0.10844 -0.270519,0.12507 -0.447382,-0.25751 -0.176863,-0.38257 v 0 c 0.08598,-0.0397 0.17053,-0.0824 0.257747,-0.11937 0.164208,-0.063 0.32761,-0.1279 0.498659,-0.16977 0.1587,-0.053 0.318201,-0.10099 0.482606,-0.13332 0.167021,-0.0479 0.324184,-0.12404 0.492164,-0.16949 0.183355,-0.0465 0.371351,-0.0664 0.553391,-0.11706 0.206171,-0.0643 0.412272,-0.12948 0.621486,-0.18315 0.214549,-0.0558 0.425995,-0.11887 0.638207,-0.18272 0.25753,-0.0813 0.511168,-0.1748 0.771074,-0.24875 0.239336,-0.0825 0.479549,-0.16262 0.712762,-0.26165 0.148073,-0.0605 0.302613,-0.10772 0.443265,-0.18367 0.146756,-0.0861 0.300786,-0.15834 0.450827,-0.23845 0.172134,-0.10328 0.345607,-0.20417 0.517487,-0.30776 0.214042,-0.12146 0.431506,-0.23756 0.6615,-0.32626 0.279052,-0.10464 0.427042,0.29 0.14799,0.39465 z"
       inkscape:connector-curvature="0" />
    <path
       style="opacity:1;fill:#000000;fill-opacity:0.99607843;stroke:none;stroke-width:0.91027492;stroke-linecap:round;stroke-miterlimit:4;stroke-dasharray:none;stroke-dashoffset:0;stroke-opacity:0.99607843"
       id="path7605"
       d="m 15.141847,211.4278 c 2.236889,0.009 4.473762,0.0247 6.704334,-0.17662 0.736044,-0.0664 1.468815,-0.16518 2.203221,-0.24778 4.767493,-0.56849 9.523955,-1.22433 14.266767,-1.97076 3.327833,-0.49152 6.599091,-1.26235 9.839197,-2.15352 0.767549,-0.21202 1.536763,-0.41246 2.296319,-0.65142 1.149122,-0.36008 1.658353,1.26502 0.509231,1.6251 v 0 c -0.779187,0.24329 -1.566438,0.45339 -2.353967,0.66838 -3.301635,0.90787 -6.635313,1.69212 -10.026073,2.19378 -4.767802,0.75003 -9.549207,1.4098 -14.341824,1.98087 -0.760217,0.0849 -1.518753,0.18648 -2.280649,0.25467 -2.267988,0.203 -4.542219,0.19026 -6.816556,0.18032 -1.204218,0 -1.204218,-1.70302 0,-1.70302 z"
       inkscape:connector-curvature="0" />
    <path
       style="opacity:1;fill:#000000;fill-opacity:0.99607843;stroke:none;stroke-width:0.91027492;stroke-linecap:round;stroke-miterlimit:4;stroke-dasharray:none;stroke-dashoffset:0;stroke-opacity:0.99607843"
       id="path7607"
       d="m 22.419902,216.6893 c 0.272696,-0.0261 1.039465,-0.0984 1.239012,-0.12368 0.737358,-0.0935 1.469851,-0.22276 2.206882,-0.3188 1.541174,-0.20081 1.639834,-0.19135 3.267688,-0.33523 3.044541,-0.19537 6.094538,-0.31731 9.129476,-0.64463 1.629621,-0.17576 3.578767,-0.47086 5.197624,-0.70357 3.422969,-0.53557 6.852416,-1.05126 10.250436,-1.73257 1.397773,-0.28026 3.094507,-0.6756 4.489622,-0.99317 3.687137,-0.77107 7.246635,-2.00293 10.828885,-3.14275 1.692688,-0.53668 0.887664,-0.27066 2.416725,-0.79301 1.139628,-0.38909 1.68988,1.22259 0.550248,1.61168 v 0 c -1.564116,0.53371 -0.747695,0.26426 -2.450642,0.80419 -3.627887,1.15414 -7.233286,2.39947 -10.967275,3.18044 -1.440883,0.32791 -3.110468,0.71722 -4.554756,1.00667 -3.42146,0.68568 -6.874437,1.20524 -10.321005,1.74423 -1.689039,0.24263 -3.591024,0.53127 -5.289125,0.7142 -3.035326,0.32697 -6.085623,0.45126 -9.130654,0.64473 -0.572002,0.0503 -1.144772,0.0925 -1.716004,0.15088 -1.677631,0.17147 -3.335217,0.49287 -5.016522,0.62839 -1.20067,0.0924 -1.331285,-1.60564 -0.130615,-1.698 z"
       inkscape:connector-curvature="0" />
    <path
       style="opacity:1;fill:#000000;fill-opacity:0.99607843;stroke:none;stroke-width:0.91027492;stroke-linecap:round;stroke-miterlimit:4;stroke-dasharray:none;stroke-dashoffset:0;stroke-opacity:0.99607843"
       id="path7609"
       d="m 34.518854,220.77021 c 1.791897,-0.26772 3.604068,-0.39025 5.410007,-0.52476 0.521015,-0.0291 1.04179,-0.0629 1.563046,-0.0874 4.887631,-0.22956 -1.481621,0.10481 3.694128,-0.1616 2.189362,-0.11269 4.377354,-0.25011 6.566428,-0.36838 4.814749,-0.31514 9.60711,-0.86995 14.382877,-1.54745 2.290133,-0.34042 4.562644,-0.79307 6.792394,-1.4193 0.607276,-0.17056 1.509723,-0.46132 2.12779,-0.65717 0.921904,-0.32836 0.489756,-0.16966 1.297484,-0.47327 1.127311,-0.42346 1.726168,1.1708 0.59886,1.59425 v 0 c -0.854725,0.32086 -0.394472,0.1522 -1.382034,0.50252 -0.670731,0.21243 -1.54592,0.49477 -2.209292,0.68077 -2.293442,0.64305 -4.630859,1.10807 -6.986068,1.45835 -4.824658,0.68405 -9.666078,1.24445 -14.530146,1.56184 -3.929429,0.21226 -7.857489,0.44786 -11.789092,0.61519 -1.736472,0.12909 -3.478111,0.2492 -5.202392,0.49638 -1.180833,0.23616 -1.514823,-1.43379 -0.33399,-1.66995 z"
       inkscape:connector-curvature="0" />
    <flowRoot
       xml:space="preserve"
       id="flowRoot7611"
       style="font-style:normal;font-variant:normal;font-weight:normal;font-stretch:normal;font-size:40px;line-height:125%;font-family:'Segoe UI';-inkscape-font-specification:'Segoe UI';letter-spacing:0px;word-spacing:0px;fill:#ffe16b;fill-opacity:1;stroke:none;stroke-width:1px;stroke-linecap:butt;stroke-linejoin:miter;stroke-opacity:1;"
       transform="matrix(0.17294213,0,0,0.17294213,48.941892,206.03475)"><flowRegion
         id="flowRegion7613"
         style="fill:#ffe16b;fill-opacity:1;"><rect
           id="rect7615"
           width="330.53189"
           height="111.16989"
           x="-35.733177"
           y="-163.42783"
           style="fill:#ffe16b;fill-opacity:1;" /></flowRegion><flowPara
         id="flowPara7617"
         style="font-style:normal;font-variant:normal;font-weight:bold;font-stretch:normal;font-family:'Swis721 BlkCn BT';-inkscape-font-specification:'Swis721 BlkCn BT Bold';fill:#ffe16b;fill-opacity:1;">M<flowSpan
   style="fill:#ffffff"
   id="flowSpan7767">OBIUS</flowSpan></flowPara></flowRoot>    <path
       style="fill:none;fill-rule:evenodd;stroke:#efefef;stroke-width:2;stroke-linecap:butt;stroke-linejoin:miter;stroke-miterlimit:4;stroke-dasharray:none;stroke-opacity:1"
       d="m 47.300451,83.537987 15.934965,-5.87757 15.345834,23.283333 16.139582,-24.341666 17.727088,8.73125 -22.754171,30.956246 -3.704167,34.66041 26.458328,18.52084 -16.933328,9.26042 -14.816666,-11.90625 2.7549,17.52511 -12.498034,2.91043 -4.544366,-26.78554 7.9375,-40.74583 z"
       id="path6895"
       inkscape:connector-curvature="0"
       sodipodi:nodetypes="ccccccccccccccc"
       transform="matrix(0.45513747,0,0,0.45513747,-0.25949462,121.21174)" />
  </g>
</svg>
