DBRep_DrawableShape

CASCADE Topology V1, (c) Matra-Datavision
Locations 0
Curve2ds 41
7 0 0  8 44 7  8.0581194247050797e-06 2.7749922987039897  6.7801141807209613e-06 2.77754451580057  5.6077401432232484e-06 2.7800967427732823  4.5409973122119435e-06 2.7826489796221274  3.5798856876870471e-06 2.7852012263471062  2.7244052696485592e-06 2.7877534829482187  1.9745560580964785e-06 2.7903057494254639  1.3303380530308052e-06 2.7928580257788425  -1.9826222548575945e-06 2.8054596566489636  3.2702067875216637e-06 2.8155118711365503  -3.7136416329809283e-06 2.8255587074818322  3.2811160064396411e-06 2.8356096170609817  -2.6421595851321839e-06 2.8456585899839411  1.519182397718196e-06 2.8557078619487584  2.5262229487281462e-07 2.8657568182679825  -3.0764474627192042e-07 2.9134880432061516  -2.6520003120898839e-08 2.9511683601986878  1.8212842819412454e-07 2.988844319652491  9.8725561420391322e-08 3.0265159357809797  -9.214767150482716e-08 3.0641845556607863  -1.159700354487558e-07 3.1018520310367799  7.7504392922358737e-08 3.1395198901270942  2.0001798294130263e-09 3.2336914511779469  -1.7536770953536772e-08 3.2901987476070644  6.2667782100124872e-08 3.3467017590883188  -1.007031499081066e-07 3.4032505494251382  9.7059033342602205e-08 3.4597635951358825  -5.8777253695621297e-08 3.5162924742035102  1.9761912950578186e-08 3.5728001608167688  1.2979489129337184e-09 3.6575353481439818  1.6614417500774828e-09 3.6857750543259766  1.3722852760500239e-09 3.7140118318426514  7.1228625547007464e-10 3.742248065128476  -3.6748547043634175e-11 3.7704861386179247  -5.9301236687237066e-10 3.7987284367454697  -6.746984393974032e-10 3.8269773439455825  -4.3550388167271981e-08 3.8834932682602812  3.5019376307999801e-07 3.911758886417374  -1.0928580070740357e-06 3.9400435436982661  1.7042968761415587e-06 3.9683184757595882  -1.1659740081513886e-06 3.9966527122014668  3.9677428563178658e-07 4.0249677865504054  -5.3503002815636063e-08 4.053295670364605  3.6716104271792568e-16 4.0816167987402174 
 0 9 20.599760922152953 7 101.71131955313021 7 405.8796644192949 7 862.13218171854191 7 1090.2584403681653 7 1318.384699017789 9
7 0 0  8 30 5  0 4.0816167987402183  2.9338811157935114e-09 4.0965314180322707  2.3468115386545505e-09 4.111442416216514  -1.5688423363407099e-10 4.1263488449000594  -2.9728817032895409e-09 4.1412497556900183  -4.4968563725290484e-09 4.1561442001934994  -3.1244837435697799e-09 4.1710312300176096  2.7485606813710754e-09 4.185909896769461  -1.7212658340217249e-08 4.2119312640398734  1.7426339239132742e-07 4.2230781222137885  -3.3197057495375073e-07 4.2342191493404151  -2.3541411258070509e-07 4.2453543377508671  7.2435042325682383e-07 4.2564833732725535  1.1027369111484061e-06 4.2676054441884954  -3.1797787729838622e-07 4.2787198352282925  2.5816756914460537e-07 4.3064881951213465  -2.1386331741466303e-06 4.3231284634530311  6.4114016933797344e-06 4.3397669775295071  -6.4401178280783754e-06 4.356375962117454  3.3574031285269271e-06 4.3730109333992004  -9.4994162979733596e-07 4.3896326367976144  1.4880011082140081e-07 4.4062742391361098  3.00212082295374e-08 4.4395890233724176  -1.9637336051683504e-07 4.4562642121605549  2.6684629039807957e-07 4.4729636194227442  2.0175203146278548e-07 4.4896930815502207  -5.1014083125936348e-07 4.5064589353613895  -3.8699021187518422e-07 4.5232682780142746  1.3972927022553721e-06 4.5401282710747157  9.8313101781894258e-17 4.5570444887403392 
 0 9 120.24613032328131 7 210.43072806574227 7 345.70762467943376 7 480.98452129312523 9
7 0 0  7 8 2  1.8233733593715311e-16 4.5570444887403401  -8.9554422776075477e-07 4.5833742692652777  1.6429895949624483e-06 4.6098269097274169  7.3411327653114498e-06 4.6363175097940257  -1.037196330526402e-05 4.6632122316150344  6.3044442489943071e-06 4.6900000848181662  -1.3006898115007579e-06 4.7168355094690924  0 4.7435563537189953 
 0 8 184.3645879076679 8
7 0 0  5 14 4  0 4.7435563537189962  -4.0406483433170069e-07 4.7720795658905946  2.6931732773196265e-09 4.8004293711019503  6.1148359805219025e-07 4.8285079760382077  8.1351601521804057e-07 4.8562175873845144  -4.0212102907628129e-06 4.8970838561835732  1.9108736925130373e-06 4.9105957097662269  9.8536322564500135e-06 4.9239870406269315  1.186444570767057e-05 4.9372489168186409  9.982940190470576e-07 4.9634975183679444  5.1096794496819503e-06 4.9764846768307507  -3.7049761167106711e-05 4.9893559195388661  6.9405460368981032e-05 5.002243713801704  0 5.0151041354615504 
 0 6 140.53366637870764 4 210.80049956806147 4 281.06733275741527 6
7 0 0  6 7 2  0 5.0151041354615504  9.4014496080350204e-06 5.0255430944012005  -5.1745040370067275e-06 5.0359801690437962  3.4631477984492509e-06 5.0464502760132746  -7.6403293258349957e-06 5.0569653460770496  8.2178327914510674e-06 5.0675634860042464  4.2148983951475361e-16 5.0782601832229153 
 0 7 68.364718916775374 7
7 0 0  6 7 2  0 5.0782601832229153  7.0078521086983352e-06 5.0863554760617262  -4.765208820629082e-06 5.0944922047365253  3.2535641915883498e-06 5.1026908421827102  -5.9094399667341743e-06 5.1109530754483785  6.4751178984386059e-06 5.1193027348328997  0 5.1277450145621941 
 0 7 51.705935528151102 7
7 0 0  4 5 2  0 5.1277450145621941  6.5878812587768999e-06 5.1348773386383755  -2.9614129965930885e-05 5.1420550144075037  4.8550834999505914e-05 5.1493288361691896  0 5.1566573625168912 
 0 5 29.131276456777211 5
7 0 0  3 4 2  0 5.1566573625168886  0 5.1654237122967634  0 5.1742845524076291  0 5.1832725940227826 
 0 4 26.093650551568015 4
7 0 0  3 4 2  0 5.1832725940227835  0 5.1914890896495889  0 5.1997693613433986  0 5.2081326829746342 
 0 4 23.84781881770645 4
7 0 0  3 4 2  0 5.2081326829746351  0 5.2159444209394898  0 5.223780428385532  0 5.2316497608465689 
 0 4 22.270026916984357 4
7 0 0  3 4 2  0 5.2316497608465689  0 5.2391750829492478  0 5.2466779465743167  0 5.2541615632726746 
 0 4 21.292945671897197 4
7 0 0  3 4 2  0 5.2541615632726719  0 5.261500417936599  0 5.2687647294672022  0 5.2759572490140947 
 0 4 20.879355476786859 4
7 0 0  3 4 2  0 5.2759572490140956  0 5.279562619634266  0 5.2831314178448974  0 5.2866714434994 
 0 4 10.459840823974666 4
1 0.95031615985331297 5.2866714434994 -1 0 
7 0 0  3 4 2  0.95031615985331297 5.2866714434994  0.95031615985331286 5.283787889349389  0.95031615985331319 5.2808414866974038  0.95031615985331297 5.2778321452846049 
 10.459840823974666 4 18.60679620484138 4
7 0 0  8 9 2  0.95031615985331297 5.2778321452846129  0.95031360745770144 5.2757107896050002  0.95033744467218639 5.2735743740195176  0.95024130999081535 5.2714112737157848  0.95045129269419704 5.2692517222603783  0.950209178867226 5.2670420783397276  0.95030615882569691 5.2648350881936494  0.95028841272960562 5.2626016914873617  0.95031615985331297 5.2603520683207901 
 0 9 15.296055784510608 9
7 0 0  3 4 2  0.95031615985331297 5.2603520683207909  0.95031615985331264 5.2574477192031095  0.95031615985331297 5.2545074334403497  0.95031615985331308 5.2515471579230848 
 0 4 7.4249264748524189 4
7 0 0  3 4 2  0.95031615985331297 5.251547157923083  0.95031615985331264 5.2486053053103978  0.95031615985331297 5.245638017916388  0.95031615985331308 5.2426622133338574 
 0 4 7.3787183732236539 4
7 0 0  3 4 2  0.95031615985331297 5.2426622133338583  0.95031615985331264 5.2396609780090682  0.95031615985331297 5.2366452236248895  0.95031615985331297 5.2336321018996195 
 0 4 7.4417757010582495 4
7 0 0  3 4 2  0.95031615985331297 5.2336321018996195  0.95031615985331264 5.2273861199521372  0.95031615985331297 5.2211869673147717  0.95031615985331308 5.2150232561424623 
 0 4 15.369548067739535 4
7 0 0  3 4 2  0.95031615985331297 5.2150232561424632  0.95031615985331264 5.2083437885516055  0.95031615985331297 5.2018017616369807  0.95031615985331297 5.1953648831509689 
 0 4 16.664470345994282 4
7 0 0  4 5 2  0.95031615985331297 5.1953648831509671  0.95027804940468386 5.1899448301604139  0.95033994455909721 5.1846318243800624  0.95031073636727115 5.1794182455593045  0.95031615985331297 5.1742808326736016 
 0 5 18.72167523762754 5
7 0 0  4 5 2  0.95031615985331297 5.1742808326736016  0.95027696959871832 5.1683627245290609  0.9503408617073319 5.1625792038308873  0.9503104831480762 5.1569256324231389  0.95031615985331297 5.151364098794402 
 0 5 21.590455302224669 5
7 0 0  4 5 2  0.95031615985331297 5.151364098794402  0.95027709665857074 5.1448440501264656  0.95034095177344824 5.138477427012333  0.95031043190181208 5.1322606724676518  0.95031615985331297 5.1261440471235549 
 0 5 25.347319312134779 5
7 0 0  4 5 2  0.95031615985331297 5.1261440471235549  0.95030740966798533 5.1147333205641701  0.95033007658131652 5.1037758749438922  0.95030606560321473 5.0931148895937781  0.95031615985331297 5.0826612580706581 
 0 5 47.261180505663027 5
7 0 0  4 5 2  0.95031615985331297 5.0826612580706581  0.95030762869357233 5.068724171885691  0.9503299261068463 5.055217878867154  0.95030597731718558 5.0419343369236458  0.95031615985331297 5.0287306850002418 
 0 5 63.042082684806601 5
7 0 0  3 6 3  0.95031615985331297 5.0287306850002418  0.95031337784161174 5.0055596380966279  0.95031765224132059 4.9827966654430611  0.95031623009208932 4.9352538523033758  0.95031297412997429 4.9103263245356175  0.95031615985331297 4.8842867506010608 
 0 4 82.898757815572466 2 165.79751563114493 4
7 0 0  5 6 2  0.95031615985331297 4.8842867506010608  0.95031600638843372 4.8505086460455118  0.95031628281873282 4.8152817994061934  0.95031565230578963 4.7787471030881079  0.95031614520314633 4.7414175993801564  0.95031615985331297 4.7039595112698231 
 0 6 179.22102708504255 6
7 0 0  5 10 3  0.95031615985331297 4.7039595112698231  0.95031073159996993 4.6826225291572996  0.95031955060750306 4.6612788915015244  0.95031537760382889 4.6399864660259027  0.95031654362290396 4.6189953242045476  0.95031670510770994 4.5357816797602482  0.95031582167587203 4.4751153081970187  0.95031641378409404 4.4152324773356213  0.95031599917238907 4.3555682862721028  0.95031615985331297 4.2954205478432632 
 0 6 102.02313851007135 4 408.09255404028539 6
7 0 0  7 38 7  0.95031615985331286 4.2954205478432632  0.95031615393021784 4.2692972348547586  0.9503161545795592 4.2431000891247246  0.95031615688171889 4.2168395511703167  0.95031615807785375 4.1905263568943338  0.95031615756989674 4.1641715375852195  0.95031615692055527 4.1377864199170657  0.95031615951867943 4.0882791640761917  0.95031615999257479 4.0651618393769029  0.95031615976619277 4.0420372841431265  0.95031615933175873 4.0189136486671373  0.95031615962007443 3.9957994223346023  0.95031616043805989 3.9727022547170909  0.95031615996315988 3.9092465845175828  0.95031616034546429 3.8689240417039388  0.95031616027363142 3.8286460851390283  0.9503161599680805 3.78839865173823  0.950316159649231 3.7481676784169236  0.95031615953750193 3.7079391020904913  0.9503161599880583 3.6375188874390241  0.95031615918027712 3.6073321694533922  0.9503161601621416 3.5771302678374792  0.95031616019234988 3.5469199434910479  0.9503161592567072 3.5167043943754703  0.9503161600593204 3.4864807654257142  0.95031616042490441 3.4109132112562293  0.95031615515654266 3.3655650183609396  0.95031617356653442 3.3202069188409951  0.95031613855462638 3.2748601784005587  0.9503161785642078 3.2295187288691523  0.95031615187099305 3.1841768104391122  0.9503163017331252 3.0934974391661574  0.95031586373361809 3.0481593576413601  0.95031606091324405 3.002821123890929  0.95031649094908577 2.9574816068678729  0.95031633680612704 2.9121403747838355  0.95031557099892972 2.8667976357407148  0.95031615985331286 2.8214541783622766 
 0 8 185.93871038409461 6 348.6350819701774 6 633.35373224582224 6 846.89271995255581 6 1167.2012015126563 6 1487.5096830727568 8
7 0 0  3 4 2  0.95031615985331297 2.8214541783622757  0.95031615985331264 2.8056176600133909  0.95031615985331297 2.7897810899819313  0.95031615985331308 2.7739444971105378 
 0 4 47.958222533578372 4
7 0 0  2 3 2  0.95031061966697772 2.7739458377506425  0.91250893403841071 2.7830040555949678  0.87425533138360623 2.7907982842104389 
 0 3 76.069696797234499 3
7 0 0  4 5 2  0.87425533138360623 2.7907982842104389  0.85069080064391756 2.7955949250201257  0.82703860829443698 2.8000543688999073  0.80322997658694817 2.8041781264413714  0.77918562738940378 2.8079563047047573 
 0 5 93.61827022224351 5
7 0 0  4 5 2  0.77918562738940389 2.8079563047047569  0.75570294114793057 2.8116462247459566  0.73205488833779242 2.8149970425782271  0.70820841249516064 2.8179971573434983  0.6841247924079531 2.820629303414274 
 0 5 91.436105289992852 5
7 0 0  3 4 2  0.68412479240795321 2.820629303414274  0.65277189366871546 2.8240556448959993  0.62112534033124955 2.8267647442455157  0.58907428508299331 2.8287023812036987 
 0 4 89.252686423909239 4
7 0 0  4 5 2  0.58907428508299342 2.8287023812036987  0.56550163999104086 2.8301272260630981  0.54182552015246799 2.8311747416826449  0.51801480037149616 2.8318371183595445  0.4940348557055711 2.8321016790019931 
 0 5 87.544428175629079 5
7 0 0  3 4 2  0.49403485570557104 2.8321016790019931  0.4565112319881317 2.8325159993324647  0.41867370496965872 2.8318328477403512  0.3803877395268585 2.829989512719826 
 0 4 102.75049040935045 4
7 0 0  3 4 2  0.3803877395268585 2.829989512719826  0.3488841063298751 2.8284722071170023  0.31722205984885576 2.8261739443451503  0.28537355751148208 2.8230779197709084 
 0 4 84.568501267144214 4
7 0 0  3 4 2  0.28537355751148219 2.8230779197709088  0.24742882468744365 2.8193892629546298  0.20945076947823926 2.8145910474647025  0.17137021850032624 2.8086940280889183 
 0 4 100.7368766210145 4
7 0 0  3 4 2  0.17137021850032613 2.8086940280889183  0.12699020009173512 2.8018219548749599  0.082654732157653066 2.793482909722929  0.038382152049710946 2.7837631899455433 
 0 4 117.40547628564381 4
7 0 0  2 3 2  0.038382152049710939 2.7837631899455433  0.019166652645187517 2.77954468413165  8.0581194246551454e-06 2.7749922987039901 
 0 3 34.010900812742726 3
Curves 40
7 0 0  11 22 3  2800.0000020581829 -564.06156222969832 712.90278058617196  2878.3309650642127 -567.36467906344762 711.04613138393961  2956.6415913950796 -570.96646775115266 709.24838427433917  3034.9429642736791 -574.5398240996559 707.26682499504295  3113.2208935939652 -578.75833992134551 705.59123499773955  3191.4856444714178 -582.62602972272146 703.50494642083845  3269.7151210195216 -587.50595887260215 701.85897056638112  3347.9316883759511 -592.17724327197118 699.90413381576275  3426.1005916992344 -597.62821934234307 698.16200836087182  3504.2489030097358 -603.35410859147839 696.38446396400377  3582.3553879313909 -609.60444176496924 694.67054076338559  3701.7411428926034 -619.93798876304527 692.12809660704568  3743.0458779371161 -623.65726928749848 691.26307739804861  3784.3395029228923 -627.52936947497471 690.41590771684582  3825.6214293077624 -631.56185656064986 689.58912321234141  3866.8908480441787 -635.76269997240161 688.78537690310077  3908.146934519732 -640.14144302818465 688.00770347722016  3949.3889861173711 -644.70904839505693 687.25945929200077  3990.6164929778843 -649.47641742915891 686.54393820998325  4031.8291413436914 -654.451583269916 685.86366312359712  4073.0267500298564 -659.63557779973451 685.21935330034876  4114.2091396260994 -665.01697238833754 684.6085674512658 
 0 12 862.13218171854191 10 1318.384699017789 12
7 0 0  6 12 3  4114.2091396261003 -665.01697238833719 684.60856745126546  4148.9998186609037 -669.56311555335833 684.09255641605375  4183.7654635809058 -674.26342542956775 683.60323723298382  4218.5063846434268 -679.11767379335095 683.14149088370493  4253.2229231418951 -684.1226502452422 682.70641805475816  4287.9154402579097 -689.27511960085792 682.29729181530502  4367.1585617506298 -701.38862744200708 681.42464833907911  4411.6960281200345 -708.42915339833803 680.97367041808263  4456.1687188877086 -715.87487165522248 680.60238060714994  4500.5472371306751 -723.89669580727423 680.33759718643046  4544.7999396676723 -732.70241076242053 680.23049300925163  4588.8903234667932 -742.51193510117071 680.31739216821404 
 0 7 210.43072806574227 5 480.98452129312523 7
7 0 0  7 8 2  4588.8903234667941 -742.51193510117071 680.31739216821393  4614.6245380417222 -748.23802918612319 680.36846263947223  4640.271837059553 -754.30051305455402 680.48734122350459  4665.8192655161756 -760.67920978908114 680.67174924342839  4691.2443695540815 -767.60137918158352 680.95744475283175  4716.5581202130761 -774.83155114869169 681.31608056796324  4741.7863847072986 -782.45068179851944 681.7515247299765  4766.917589073294 -790.39533899013327 682.25996959098154 
 0 8 184.3645879076679 8
7 0 0  9 10 2  4766.9175890732949 -790.39533899013372 682.25996959098143  4796.7253475640573 -799.81759777050013 682.8625857709859  4826.3473382058382 -809.71762885298472 683.57423350225156  4855.9022712804554 -819.66650683442515 684.28630796817481  4885.0868313677256 -831.08668751986147 685.38457513156732  4914.7818329850961 -840.44803574841035 685.90746877784954  4943.409489650403 -853.19378063917895 687.39383149449554  4972.936989808466 -863.29680758993663 688.10235485375949  5001.9607282720863 -874.81702224918752 689.28046311029016  5030.7705869394122 -886.89471251061548 690.52507519127164 
 0 10 281.06733275741527 10
7 0 0  4 5 2  5030.7705869394131 -886.89471251061548 690.52507519127164  5046.5197004806159 -893.52745486909862 691.21916890608793  5062.1389690240239 -900.43268518033096 691.97247267231194  5077.5568723700226 -907.76040619602907 692.8250601863574  5092.7007142832672 -915.66370755856497 693.80212320352916 
 0 5 68.364718916775374 5
7 0 0  4 5 2  5092.7007142832663 -915.66370755856485 693.80212320352916  5104.1541974433121 -921.64750256125501 694.54357715605761  5115.4191024211596 -927.94237612304585 695.35340478677892  5126.4395643557482 -934.64041999806966 696.25669514883111  5137.1594420278825 -941.83438025375028 697.26928152885637 
 0 5 51.705935528151102 5
7 0 0  4 5 2  5137.1594420278825 -941.83438025375028 697.26928152885648  5143.1928115550745 -945.88745587487665 697.84058434150768  5149.1172115556546 -950.07811928690501 698.4419347912077  5154.8984134395414 -954.46278453315972 699.09214007328183  5160.5558382412364 -959.00890031030679 699.77443083695812 
 0 5 29.131276456777211 5
7 0 0  3 4 2  5160.5558382412346 -959.00890031030497 699.774430836958  5167.3039486943471 -964.45221338137696 700.59464701790068  5173.7926322087596 -970.17636713194202 701.4809867309192  5179.9636224020069 -976.24456366546326 702.44808410247174 
 0 4 26.093650551568015 4
7 0 0  3 4 2  5179.9636224020069 -976.24456366546383 702.44808410247174  5185.604886217513 -981.79185777191424 703.33216449109091  5190.9510216403132 -987.59820846827552 704.27922465600636  5195.9505025743538 -993.70893017457297 705.30010569291687 
 0 4 23.84781881770645 4
7 0 0  3 4 2  5195.9505025743538 -993.70893017457331 705.30010569291687  5200.620254227947 -999.41663326797811 706.2536568661551  5204.9582972474909 -1005.3549298636947 707.2657986220147  5208.9239704634674 -1011.5521471246335 708.34359689328244 
 0 4 22.270026916984357 4
7 0 0  3 4 2  5208.9239704634674 -1011.5521471246334 708.34359689328244  5212.7162830200814 -1017.4784510722367 709.37427887211106  5216.141013075503 -1023.6000426533165 710.45780542398188  5219.1728711326214 -1029.9304019098015 711.59772066351525 
 0 4 21.292945671897197 4
7 0 0  3 4 2  5219.1728711326186 -1029.9304019097988 711.59772066351479  5222.1460813516424 -1036.1383075824638 712.7155855421322  5224.7185819241513 -1042.499664067283 713.87916608972864  5226.8842917518605 -1049.016833781714 715.0890807931454 
 0 4 20.879355476786859 4
7 0 0  3 4 2  5226.8842917518605 -1049.0168337817151 715.08908079314563  5227.9698899951081 -1052.2836740123018 715.69557075763862  5228.9478510226681 -1055.572788000497 716.31056287634419  5229.8220700325737 -1058.8898967817131 716.93503449971001 
 0 4 10.459840823974666 4
7 0 0  3 4 2  5229.8220700325728 -1058.8898967817133 716.93503449971013  5230.5029812782741 -1061.4735247444969 717.42142263325889  5231.081765166592 -1064.0844918123832 717.91627422993236  5231.546752648138 -1066.7194905478912 718.41928601518271 
 10.459840823974666 4 18.60679620484138 4
7 0 0  4 5 2  5231.546752648137 -1066.7194905478843 718.41928601518123  5232.2020822483155 -1070.4343052893594 719.12845296259479  5232.6555199054965 -1074.163605057234 719.84628410702749  5232.8780848223123 -1077.9126436233469 720.57600407999519  5232.8874592888142 -1081.6791296969359 721.31428598006369 
 0 5 15.296055784510608 5
7 0 0  3 4 2  5232.8874592888133 -1081.679129696935 721.31428598006357  5232.8889886435218 -1084.1077983632158 721.79080445255079  5232.7822224997253 -1086.5383421647116 722.27095295930314  5232.5652179577055 -1088.9564075445355 722.75196494642648 
 0 4 7.4249264748524189 4
7 0 0  3 4 2  5232.5652179577055 -1088.9564075445373 722.75196494642682  5232.3495639163229 -1091.3594243967823 723.22998341558525  5232.0246068097067 -1093.7547611466121 723.70977878121334  5231.5923019325282 -1096.128246841173 724.18850256950623 
 0 4 7.3787183732236539 4
7 0 0  3 4 2  5231.5923019325282 -1096.1282468411721 724.18850256950611  5231.1563026481363 -1098.5220159586797 724.67131745347956  5230.610277125068 -1100.8982302397585 725.15398404843177  5229.9600238001785 -1103.2435199682009 725.63369529411739 
 0 4 7.4417757010582495 4
7 0 0  3 4 2  5229.9600238001776 -1103.2435199682009 725.63369529411739  5228.6120960034023 -1108.105134811907 726.62810177807296  5226.8264949990144 -1112.8068779747487 727.60420709279379  5224.6515472690953 -1117.3664332123299 728.56395231771148 
 0 4 15.369548067739535 4
7 0 0  3 4 2  5224.6515472690962 -1117.366433212329 728.56395231771137  5222.2946080051224 -1122.3075150681707 729.60400545227662  5219.5157491563805 -1127.0110960312531 730.60995099937088  5216.3905542164875 -1131.5197683969375 731.58780232216202 
 0 4 16.664470345994282 4
7 0 0  4 5 2  5216.3905542164875 -1131.5197683969386 731.58780232216236  5213.7462948025941 -1135.3071533457455 732.41100109401759  5210.9354883013966 -1138.9665559496098 733.21074893178434  5207.9269781640123 -1142.466286548974 733.9878826891138  5204.7750127312802 -1145.8585498252748 734.74686339453729 
 0 5 18.72167523762754 5
7 0 0  4 5 2  5204.7750127312793 -1145.8585498252751 734.74686339453729  5201.1270216970388 -1149.7533782425951 735.620928355449  5197.3315544775396 -1153.5010579930506 736.4662746878123  5193.3583732384996 -1157.0598391920362 737.28337771197778  5189.260514477357 -1160.4990776511477 738.07898720169703 
 0 5 21.590455302224669 5
7 0 0  4 5 2  5189.260514477357 -1160.4990776511477 738.07898720169703  5184.437801600714 -1164.5158577970578 739.01143439253542  5179.485723973572 -1168.3707755260787 739.91080375162403  5174.3771715460798 -1172.0145292465488 740.77754726819012  5169.1599685573892 -1175.5295578158482 741.62007687143091 
 0 5 25.347319312134779 5
7 0 0  4 5 2  5169.1599685573892 -1175.5295578158484 741.62007687143091  5159.4188063890479 -1182.0795199351196 743.19170895587206  5149.3520757254946 -1188.0900087485572 744.66403545905905  5139.0329585492009 -1193.6823669602034 746.06336367023391  5128.5276446933358 -1198.9642797497102 747.40343645546454 
 0 5 47.261180505663027 5
7 0 0  4 5 2  5128.5276446933358 -1198.9642797497102 747.40343645546454  5114.5119663920805 -1205.9962111517293 749.18991329435323  5100.2229560995493 -1212.4348774293283 750.86304713504103  5085.7276719097226 -1218.4248063316309 752.45484979885384  5071.0870413834355 -1224.0960534518697 753.9818276885826 
 0 5 63.042082684806601 5
7 0 0  8 9 2  5071.0870413834355 -1224.0960534518692 753.9818276885826  5051.8108653274076 -1231.5520449445694 755.99151258337486  5032.3636381722445 -1238.4705272250906 757.89543258816434  5012.8228502240299 -1245.1033899219235 759.73782159660084  4993.0233401051291 -1251.1718107352156 761.47461460173099  4973.4212870974879 -1257.4386934775728 763.22939394333935  4953.5648389574362 -1263.3073605834002 764.90539791973333  4933.7099909372664 -1268.9958982930862 766.53530327615522  4913.7544164285582 -1274.450892793531 768.11163551259131 
 0 9 165.79751563114493 9
7 0 0  4 5 2  4913.7544164285582 -1274.4508927935312 768.11163551259131  4870.6090568636464 -1286.240713378116 771.51966892953158  4827.156746778237 -1296.7283340534821 774.62579079197587  4783.3401720551383 -1305.7212468946598 777.39472503421291  4739.2548376152872 -1313.5740284434023 779.92069137366957 
 0 5 179.22102708504255 5
7 0 0  13 14 2  4739.2548376152863 -1313.5740284434021 779.92069137366968  4708.3445502130144 -1319.0726774714999 781.69194064373232  4677.4066110453223 -1324.1294413107144 783.36144560038463  4646.2881135202706 -1328.8008621620063 784.95978198172224  4615.4667199987562 -1332.8672996590842 786.42538756351826  4583.9707529269717 -1337.8456064092359 788.11759479893931  4553.408334873031 -1340.3432084861677 789.22818691122802  4521.6730330470655 -1345.4149610513966 790.96023257414652  4490.9550467663976 -1347.730205678932 792.0403204809237  4459.4865552637311 -1351.5700529483568 793.49017252422334  4428.3666302916135 -1354.3808209417116 794.698067326402  4397.0906408040919 -1357.3225327173261 795.94053177463309  4365.8257404339483 -1360.0428367181394 797.13215831266757  4334.5377720539036 -1362.6262548296629 798.29209831644278 
 0 14 408.09255404028539 14
7 0 0  14 28 3  4334.5377720539054 -1362.6262548296634 798.29209831644266  4274.1915643240127 -1367.6088193807991 800.52933540117863  4213.8262920854077 -1372.0507679759708 802.64001023635399  4153.4600388311383 -1376.0079104172048 804.64175575573142  4093.0151220909202 -1379.3622991226118 806.48338622095525  4032.7267078362192 -1382.7017411411998 808.38870362979844  3972.1102546931083 -1384.7039576704933 809.83487019351571  3911.9005803341033 -1387.8667592522634 811.78653991965166  3851.2853538894178 -1389.0300003712114 813.0208711585102  3790.927028545449 -1391.429835289892 814.74046555047869  3730.4461553380379 -1392.5100788291081 816.03241119659594  3669.979056557238 -1394.0078262632726 817.471720811723  3609.5167473782158 -1395.1121494714012 818.7979770497991  3549.0416225027029 -1396.112270841611 820.0975271573069  3442.8166238663857 -1397.6288142087208 822.31071104439184  3397.0673284313903 -1398.2074260785448 823.24220069220894  3351.3152972840394 -1398.7158675138053 824.15294910810144  3305.5611773683795 -1399.1705659220042 825.0454825868635  3259.8055999207581 -1399.5811739872463 825.92133295739916  3214.0487382343681 -1399.949729091092 826.78095300512587  3168.2904545803021 -1400.2761975937069 827.62448734681482  3122.5306588267476 -1400.5634152451134 828.45243957134903  3076.7695524022615 -1400.8182732971381 829.26583798362549  3031.0075646501878 -1401.0490211456042 830.06591345994298  2985.244984741239 -1401.2607666372128 830.85356089678146  2939.4815736928713 -1401.4526490934911 831.62896425389124  2893.7167852146249 -1401.6207417700189 832.3917201275807  2847.9516504403823 -1401.7705072028727 833.14159999758567 
 0 15 846.89271995255581 13 1487.5096830727568 15
7 0 0  3 4 2  2847.9516504403814 -1401.7705072028727 833.14159999758556  2831.9678078332204 -1401.822618031229 833.40356868115066  2815.9839183038735 -1401.8713048496163 833.66341780922187  2799.9999865623427 -1401.9166801004528 833.9211672781546 
 0 4 47.958222533578372 4
7 0 0  3 4 2  2800.0000009993087 -1401.9114107256341 833.92299020607527  2800.0056775059065 -1377.9423008229023 842.21597624683227  2799.9949106637323 -1353.5542638831382 849.31706062710589  2799.9999996543024 -1328.9251668981192 855.36143389544736 
 0 4 76.069696797234499 4
7 0 0  4 5 2  2799.9999996543029 -1328.9251668981192 855.36143389544736  2800.0000176572257 -1306.1676021312155 860.94660265100424  2799.9999921249387 -1283.2534133551196 865.72420945072258  2799.9999891737339 -1260.1990509873631 869.77855522918946  2800.0000007933445 -1237.017094579508 873.17398252824637 
 0 5 93.61827022224351 5
7 0 0  4 5 2  2800.0000007933431 -1237.017094579508 873.17398252824626  2800.0000101187616 -1214.3766561093103 876.49009453546421  2799.9999906195362 -1191.671835303328 879.16862649014138  2800.0000004742847 -1168.8966988906659 881.15072163420928  2799.9999996746433 -1146.0433343221553 882.35747081292538 
 0 5 91.436105289992852 5
7 0 0  5 6 2  2799.9999996746433 -1146.0433343221553 882.35747081292527  2799.9998331372753 -1128.192549334492 883.30006821629797  2800.0001711150762 -1110.342216575827 883.79258703184803  2800.0001597184455 -1092.4915034266244 883.83176631262745  2799.9998102219415 -1074.6410423940208 883.33773919303337  2800.000000719836 -1056.7906480050167 882.34499603914901 
 0 6 89.252686423909239 6
7 0 0  4 5 2  2800.000000719836 -1056.7906480050165 882.34499603914901  2800.000004007567 -1034.9098804205016 881.12811169535655  2800.0000004496269 -1013.1136930000472 879.12016391046586  2799.9999958421881 -991.39388635678483 876.39814403010666  2799.9999997058621 -969.74267733309455 873.0349021192194 
 0 5 87.544428175629079 5
7 0 0  4 5 2  2799.9999997058621 -969.74267733309443 873.03490211921951  2800.0002550983568 -944.33295093957895 869.08781461143383  2800.0005615510995 -919.08632449097638 864.27860085062036  2799.9994884229209 -894.00656226930585 858.74504845835816  2799.9999996996726 -869.11163579494348 852.27300066001271 
 0 5 102.75049040935045 5
7 0 0  5 6 2  2799.9999996996726 -869.1116357949436 852.2730006600126  2800.0000296182398 -852.72378595886903 848.0125860494926  2799.9999843578003 -836.44972048478689 843.38651057545133  2799.9999695992369 -820.2896971903524 838.39234920199101  2800.000005605832 -804.26389313386824 832.96994457595281  2799.9999997339251 -788.36133098060088 827.14891797998553 
 0 6 84.568501267144214 6
7 0 0  4 5 2  2799.9999997339251 -788.361330980601 827.14891797998553  2799.9999823429321 -764.67817352868849 818.47985676922997  2800.0000370096227 -741.3812136183235 808.90773925012866  2799.9999815849037 -718.41867454158751 798.5535616853814  2799.999999751019 -695.73877264034206 787.53856781712102 
 0 5 100.7368766210145 5
7 0 0  6 7 2  2799.999999751019 -695.73877264034206 787.53856781712091  2800.0002428992425 -678.11763235392402 778.98046403508306  2799.9999240795464 -660.67890146753609 770.07847320372559  2799.9997397906523 -643.40461025114143 760.89181741241111  2799.9999127467031 -626.32733125545565 751.33341103446503  2800.000217845361 -609.43783719640362 741.43706050303808  2799.9999996725492 -592.74945489183426 731.17150194787075 
 0 7 117.40547628564381 7
7 0 0  3 4 2  2799.9999996725487 -592.74945489183415 731.17150194787087  2799.9999511191322 -583.09184444762707 725.2307926701759  2800.0009974160562 -573.52837711947109 719.14309125703596  2800.0000020581842 -564.06156222969855 712.9027805861723 
 0 4 34.010900812742726 4
Polygon3D 0
PolygonOnTriangulations 0
Surfaces 1
9 0 0 0 0 3 3 9 11 7 9 2798.9455164305973 -564.0107501072988 712.92358035843279  2866.0958153498605 -566.86516373773884 711.34840943413406  3044.2739190469856 -574.94375338520831 707.12535142508989  3333.4582744417507 -590.77166362188404 700.24959668275471  3665.75713302945 -615.4012941362887 692.74829403468834  3998.0229949721997 -648.56699700760407 686.12506726381753  4327.4999409546645 -693.43081146947407 681.52830937981673  4661.1563125334014 -750.31560089700122 678.88560100063648  4960.9120004544548 -855.80928469976186 686.86268394446665  5202.6229458470998 -955.68640583188539 697.50617166126085  5229.8220700325737 -1058.8898967817131 716.93503449971013  
2786.8032191605867 -601.09010925355085 737.9883753135864  2853.6862794525396 -603.61586285919668 736.39954051909626  3031.1574666274264 -610.76173505354575 732.09513676350753  3319.028061794223 -624.70616329027621 724.65478882371872  3649.9008054113278 -646.38997073254473 715.68417576931927  3980.7179363613009 -675.79323128853287 706.69867073930311  4309.3170277177051 -716.07548473598888 698.7806474262444  4640.6919327410287 -768.13341091857865 692.03249720688825  4946.8731591764517 -864.23243353942007 693.97043948367059  5178.6558879397608 -960.65911221900387 701.16669661190952  5229.8220700325737 -1058.8898967817131 716.93503449971024  
2766.4247543998681 -678.35402023972233 782.94313479641835  2832.8601423019977 -680.25817991944859 781.3189750193975  3009.1473982313923 -685.6415474059329 776.84414655063972  3294.8176626522259 -696.04493646813637 768.39337717894284  3623.3108764124177 -712.19483039757267 756.86139775672586  3951.7278552909452 -734.45729805037104 743.77658160836609  4278.8660407789739 -765.85620379368913 730.07672949814685  4606.5177632392015 -808.13530287791457 716.128098039007  4923.3883811287624 -885.55311888792244 707.37267375445549  5139.302721776191 -972.49694693112633 707.97292451189492  5229.8220700325746 -1058.8898967817131 716.93503449971013  
2747.5754465966966 -801.74639499791306 837.54568985917638  2813.5997405084795 -802.87355870592353 835.77311925601578  2988.8008049665841 -806.04991056540212 830.82989803882879  3272.4521423984033 -812.02720047507239 820.91211099729503  3598.7941616260487 -821.18862491009565 806.31547218029459  3925.1028421397377 -834.1313812710174 788.60305237665568  4250.9340789764474 -853.28379131270958 768.45819007595753  4575.5202792352102 -880.75855080443625 746.38567090124025  4901.9399275821797 -930.71810703772303 725.39056791537087  5106.0020356223267 -995.8789437426816 716.62801515356739  5229.8220700325737 -1058.8898967817131 716.93503449971001  
2740.4445281314324 -934.41465101791846 871.60774362345023  2806.3181426472593 -934.87304933526252 869.79572560675138  2981.1227210310235 -936.153968381911 864.71373114846006  3264.0367006037541 -938.38746584318721 854.2579045221712  3589.64562555168 -941.63883870512734 838.38796173049457  3915.3379374428591 -946.41937898357492 818.58326655697806  4240.7466357794901 -954.16983632471704 795.23509233422897  4564.786565479968 -966.4701744254869 768.72948485119741  4894.2701875605471 -989.30103816807582 740.30903956785914  5098.4665457017927 -1024.891542423996 723.72612091198084  5229.8220700325737 -1058.8898967817131 716.93503449971013  
2745.2199794700018 -1079.8475752233953 889.71246336390254  2811.2078257956427 -1079.7841667307814 887.86601406621128  2986.317638729231 -1079.5800579820927 882.69928518864424  3269.7981296791322 -1078.892369445131 872.19041039523245  3596.1201300409402 -1077.4202026996149 856.32993176465493  3922.7238808573397 -1075.215069709604 836.45662901293292  4248.6133769267626 -1072.281586679879 812.6185986497627  4574.7071344169717 -1068.7065351464989 784.81047010509008  4900.6294880342921 -1063.946207398111 753.14221248495573  5117.4230174915965 -1060.8929598624311 729.48318711103423  5229.8220700325746 -1058.8898967817131 716.93503449971013  
2763.641472566735 -1236.8672900609779 878.32734964323595  2830.0471221669159 -1236.5128225990291 876.74552892021154  3006.2662815759954 -1235.4600587356158 872.33440719685848  3291.807410503935 -1233.0667841399429 863.59225830802131  3620.4991822808229 -1228.5536562654361 850.66845400685361  3949.7636663509697 -1221.0471988772299 834.50510116516091  4277.1685928886536 -1208.609134049341 814.7504254086482  4608.2902759889994 -1188.738751843091 790.69677003169159  4923.0633696314799 -1156.3096283152222 762.05145347335235  5166.7407778915504 -1104.5180234720119 733.61972813707234  5229.8220700325737 -1058.8898967817131 716.93503449971013  
2786.2386397869227 -1347.7882860844377 852.88494299262015  2853.152291179128 -1347.4697580816623 851.5857089173553  3030.7188246609157 -1346.480076491978 847.99542478459432  3318.763090566038 -1344.110613452445 841.29061329374701  3650.2866682587924 -1339.1259816890299 831.94376328058513  3982.6463439074778 -1329.6505165273279 820.5178260704746  4311.8432986449779 -1312.0720624764849 806.35273964433884  4648.5616873057506 -1281.3415942363999 788.03865190698434  4950.1687797359164 -1230.771068469166 765.57124495607832  5222.5199717803953 -1139.2022947231969 735.12273257278275  5229.8220700325737 -1058.8898967817131 716.93503449971013  
2799.9999865623431 -1401.9166801004526 833.9211672781546  2867.2223681697769 -1401.7258489284618 832.83717033423216  3045.60753873161 -1401.0640106744295 829.86203204549713  3335.1727105876639 -1399.2245059146978 824.59098851264946  3668.410222389793 -1394.6622793516422 817.66231991812504  4002.6310411514191 -1384.877086509435 809.39114981582463  4332.9098796233584 -1365.33744331056 798.95536965762994  4672.9560726785676 -1329.5306692263059 784.53996145231145  4966.6172503371636 -1270.390219343657 766.42653008969262  5255.8298617696564 -1157.573034130799 735.51290549326927  5229.8220700325737 -1058.8898967817131 716.93503449971013  

0 4
0.15215133237491321 1
0.30430266474982642 1
0.45645399712473961 1
0.60860532949965274 1
0.77946074467648285 1
0.95031615985331297 4

2.7739444971105378 4
2.973752686968413 1
3.3041696521871251 1
3.6345866174058381 1
3.9650035826245502 1
4.2954205478432623 1
4.6258375130619749 1
4.9562544782806874 1
5.2866714434994 4

Triangulations 0

TShapes 85
Ve
0.00564048930924338
2800.00000205818 -564.061562229698 712.902780586172
0 0

0101101
*
Ve
0.00564048930924338
4114.2091396261 -665.016972388337 684.608567451266
0 0

0101101
*
Ed
 0.00564048930924338 1 1 0
1  1 0 0 1318.38469901779
2  1 1 0 0 1318.38469901779
0

0101000
+85 0 -84 0 *
Ve
0.00564048930924338
4588.89032346679 -742.511935101171 680.317392168214
0 0

0101101
*
Ed
 0.00564048930924338 1 1 0
1  2 0 0 480.984521293125
2  2 1 0 0 480.984521293125
0

0101000
+84 0 -82 0 *
Ve
0.00564048930924338
4766.91758907329 -790.395338990133 682.259969590982
0 0

0101101
*
Ed
 0.00564048930924338 1 1 0
1  3 0 0 184.364587907668
2  3 1 0 0 184.364587907668
0

0101000
+82 0 -80 0 *
Ve
0.00564048930924338
5030.77058693941 -886.894712510615 690.525075191272
0 0

0101101
*
Ed
 0.00564048930924338 1 1 0
1  4 0 0 281.067332757415
2  4 1 0 0 281.067332757415
0

0101000
+80 0 -78 0 *
Ve
0.00564048930924338
5092.70071428327 -915.663707558565 693.802123203529
0 0

0101101
*
Ed
 0.00564048930924338 1 1 0
1  5 0 0 68.3647189167754
2  5 1 0 0 68.3647189167754
0

0101000
+78 0 -76 0 *
Ve
0.00564048930924338
5137.15944202788 -941.83438025375 697.269281528856
0 0

0101101
*
Ed
 0.00564048930924338 1 1 0
1  6 0 0 51.7059355281511
2  6 1 0 0 51.7059355281511
0

0101000
+76 0 -74 0 *
Ve
0.00564048930924338
5160.55583824124 -959.008900310307 699.774430836958
0 0

0101101
*
Ed
 0.00564048930924338 1 1 0
1  7 0 0 29.1312764567772
2  7 1 0 0 29.1312764567772
0

0101000
+74 0 -72 0 *
Ve
0.00564048930924338
5179.96362240201 -976.244563665462 702.448084102471
0 0

0101101
*
Ed
 0.00564048930924338 1 1 0
1  8 0 0 26.093650551568
2  8 1 0 0 26.093650551568
0

0101000
+72 0 -70 0 *
Ve
0.00564048930924338
5195.95050257436 -993.708930174576 705.300105692917
0 0

0101101
*
Ed
 0.00564048930924338 1 1 0
1  9 0 0 23.8478188177065
2  9 1 0 0 23.8478188177065
0

0101000
+70 0 -68 0 *
Ve
0.00564048930924338
5208.92397046347 -1011.55214712463 708.343596893282
0 0

0101101
*
Ed
 0.00564048930924338 1 1 0
1  10 0 0 22.2700269169844
2  10 1 0 0 22.2700269169844
0

0101000
+68 0 -66 0 *
Ve
0.00564048930924338
5219.17287113262 -1029.93040190979 711.597720663514
0 0

0101101
*
Ed
 0.00564048930924338 1 1 0
1  11 0 0 21.2929456718972
2  11 1 0 0 21.2929456718972
0

0101000
+66 0 -64 0 *
Ve
0.00564048930924338
5226.88429175188 -1049.01683378178 715.089080793157
0 0

0101101
*
Ed
 0.00564048930924338 1 1 0
1  12 0 0 20.8793554767869
2  12 1 0 0 20.8793554767869
0

0101000
+64 0 -62 0 *
Ve
0.00564048930924338
5229.82207003257 -1058.88989678171 716.93503449971
0 0

0101101
*
Ed
 0.00564048930924338 1 1 0
1  13 0 0 10.4598408239747
2  13 1 0 0 10.4598408239747
0

0101000
+62 0 -60 0 *
Ed
 0.00564048930924338 1 1 1
2  14 1 0 0 0.950316159853313
0

0101000
+60 0 -60 0 *
Ve
0.00564048930924338
5231.54675264814 -1066.71949054788 718.419286015181
0 0

0101101
*
Ed
 0.00564048930924338 1 1 0
1  14 0 10.4598408239747 18.6067962048414
2  15 1 0 10.4598408239747 18.6067962048414
0

0101000
+60 0 -57 0 *
Ve
0.00564048930924338
5232.88745928882 -1081.67912969694 721.314285980064
0 0

0101101
*
Ed
 0.00564048930924338 1 1 0
1  15 0 0 15.2960557845106
2  16 1 0 0 15.2960557845106
0

0101000
+57 0 -55 0 *
Ve
0.00564048930924338
5232.56521795771 -1088.95640754454 722.751964946426
0 0

0101101
*
Ed
 0.00564048930924338 1 1 0
1  16 0 0 7.42492647485242
2  17 1 0 0 7.42492647485242
0

0101000
+55 0 -53 0 *
Ve
0.00564048930924338
5231.59230193253 -1096.12824684117 724.188502569506
0 0

0101101
*
Ed
 0.00564048930924338 1 1 0
1  17 0 0 7.37871837322365
2  18 1 0 0 7.37871837322365
0

0101000
+53 0 -51 0 *
Ve
0.00564048930924338
5229.96002380018 -1103.2435199682 725.633695294118
0 0

0101101
*
Ed
 0.00564048930924338 1 1 0
1  18 0 0 7.44177570105825
2  19 1 0 0 7.44177570105825
0

0101000
+51 0 -49 0 *
Ve
0.00564048930924338
5224.6515472691 -1117.36643321233 728.563952317712
0 0

0101101
*
Ed
 0.00564048930924338 1 1 0
1  19 0 0 15.3695480677395
2  20 1 0 0 15.3695480677395
0

0101000
+49 0 -47 0 *
Ve
0.00564048930924338
5216.39055421649 -1131.51976839694 731.587802322162
0 0

0101101
*
Ed
 0.00564048930924338 1 1 0
1  20 0 0 16.6644703459943
2  21 1 0 0 16.6644703459943
0

0101000
+47 0 -45 0 *
Ve
0.00564048930924338
5204.77501273128 -1145.85854982528 734.746863394537
0 0

0101101
*
Ed
 0.00564048930924338 1 1 0
1  21 0 0 18.7216752376275
2  22 1 0 0 18.7216752376275
0

0101000
+45 0 -43 0 *
Ve
0.00564048930924338
5189.26051447736 -1160.49907765115 738.078987201697
0 0

0101101
*
Ed
 0.00564048930924338 1 1 0
1  22 0 0 21.5904553022247
2  23 1 0 0 21.5904553022247
0

0101000
+43 0 -41 0 *
Ve
0.00564048930924338
5169.15996855739 -1175.52955781585 741.620076871431
0 0

0101101
*
Ed
 0.00564048930924338 1 1 0
1  23 0 0 25.3473193121348
2  24 1 0 0 25.3473193121348
0

0101000
+41 0 -39 0 *
Ve
0.00564048930924338
5128.52764469334 -1198.96427974971 747.403436455465
0 0

0101101
*
Ed
 0.00564048930924338 1 1 0
1  24 0 0 47.261180505663
2  25 1 0 0 47.261180505663
0

0101000
+39 0 -37 0 *
Ve
0.00564048930924338
5071.08704138344 -1224.09605345187 753.981827688583
0 0

0101101
*
Ed
 0.00564048930924338 1 1 0
1  25 0 0 63.0420826848066
2  26 1 0 0 63.0420826848066
0

0101000
+37 0 -35 0 *
Ve
0.00564048930924338
4913.75441642856 -1274.45089279353 768.111635512591
0 0

0101101
*
Ed
 0.00564048930924338 1 1 0
1  26 0 0 165.797515631145
2  27 1 0 0 165.797515631145
0

0101000
+35 0 -33 0 *
Ve
0.00564048930924338
4739.25483761529 -1313.5740284434 779.92069137367
0 0

0101101
*
Ed
 0.00564048930924338 1 1 0
1  27 0 0 179.221027085043
2  28 1 0 0 179.221027085043
0

0101000
+33 0 -31 0 *
Ve
0.00564048930924338
4334.5377720539 -1362.62625482966 798.292098316443
0 0

0101101
*
Ed
 0.00564048930924338 1 1 0
1  28 0 0 408.092554040285
2  29 1 0 0 408.092554040285
0

0101000
+31 0 -29 0 *
Ve
0.00564048930924338
2847.95165044038 -1401.77050720287 833.141599997586
0 0

0101101
*
Ed
 0.00564048930924338 1 1 0
1  29 0 0 1487.50968307276
2  30 1 0 0 1487.50968307276
0

0101000
+29 0 -27 0 *
Ve
0.00564048930924338
2800.00000099931 -1401.91141072563 833.922990206075
0 0

0101101
*
Ed
 0.00564048930924338 1 1 0
1  30 0 0 47.9582225335784
2  31 1 0 0 47.9582225335784
0

0101000
+27 0 -25 0 *
Ve
0.00564048930924338
2800 -1328.92517089844 855.361450195313
0 0

0101101
*
Ed
 0.00564048930924338 1 1 0
1  31 0 0 76.0696967972345
2  32 1 0 0 76.0696967972345
0

0101000
+25 0 -23 0 *
Ve
0.00564048930924338
2800 -1237.01708984375 873.173950195313
0 0

0101101
*
Ed
 0.00564048930924338 1 1 0
1  32 0 0 93.6182702222435
2  33 1 0 0 93.6182702222435
0

0101000
+23 0 -21 0 *
Ve
0.00564048930924338
2800 -1146.04333496094 882.357482910156
0 0

0101101
*
Ed
 0.00564048930924338 1 1 0
1  33 0 0 91.4361052899929
2  34 1 0 0 91.4361052899929
0

0101000
+21 0 -19 0 *
Ve
0.00564048930924338
2800 -1056.79064941406 882.344970703125
0 0

0101101
*
Ed
 0.00564048930924338 1 1 0
1  34 0 0 89.2526864239092
2  35 1 0 0 89.2526864239092
0

0101000
+19 0 -17 0 *
Ve
0.00564048930924338
2800 -969.74267578125 873.034912109375
0 0

0101101
*
Ed
 0.00564048930924338 1 1 0
1  35 0 0 87.5444281756291
2  36 1 0 0 87.5444281756291
0

0101000
+17 0 -15 0 *
Ve
0.00564048930924338
2800 -869.111633300781 852.273010253906
0 0

0101101
*
Ed
 0.00564048930924338 1 1 0
1  36 0 0 102.75049040935
2  37 1 0 0 102.75049040935
0

0101000
+15 0 -13 0 *
Ve
0.00564048930924338
2800 -788.361328125 827.14892578125
0 0

0101101
*
Ed
 0.00564048930924338 1 1 0
1  37 0 0 84.5685012671442
2  38 1 0 0 84.5685012671442
0

0101000
+13 0 -11 0 *
Ve
0.00564048930924338
2800 -695.73876953125 787.53857421875
0 0

0101101
*
Ed
 0.00564048930924338 1 1 0
1  38 0 0 100.736876621015
2  39 1 0 0 100.736876621015
0

0101000
+11 0 -9 0 *
Ve
0.00564048930924338
2800 -592.749450683594 731.171508789063
0 0

0101101
*
Ed
 0.00564048930924338 1 1 0
1  39 0 0 117.405476285644
2  40 1 0 0 117.405476285644
0

0101000
+9 0 -7 0 *
Ed
 0.00564048930924338 1 1 0
1  40 0 0 34.0109008127427
2  41 1 0 0 34.0109008127427
0

0101000
+7 0 -85 0 *
Wi

0101100
-83 0 -81 0 -79 0 -77 0 -75 0 -73 0 -71 0 -69 0 -67 0 -65 0 
-63 0 -61 0 -59 0 +58 0 -56 0 -54 0 -52 0 -50 0 -48 0 -46 0 
-44 0 -42 0 -40 0 -38 0 -36 0 -34 0 -32 0 -30 0 -28 0 -26 0 
-24 0 -22 0 -20 0 -18 0 -16 0 -14 0 -12 0 -10 0 -8 0 -6 0 
-5 0 *
Fa
0  0.00100397184420864 1 0

0101000
+4 0 *
Sh

0101000
-3 0 *
Co

1100000
+2 0 *

+1 0 