DBRep_DrawableShape

CASCADE Topology V1, (c) Matra-Datavision
Locations 0
Curve2ds 40
7 0 0  1 2 2  -2.4463244847300001e-11 -3.5241062033680001e-13  -2.4465168441510001e-11 3 
 0 2 1 2
7 0 0  1 2 2  24 3  24 -1.099038065236e-13 
 -1 2 0 2
7 0 0  1 2 2  -1.4516400221899999e-13 3.2971025043930001e-13  -9.6399268513929997e-14 3 
 0 2 1 2
7 0 0  1 2 2  24 3  24 -5.646511574098e-13 
 -1 2 0 2
7 0 0  1 2 2  -2.446733728089e-11 3.2971025043960001e-13  -2.4466303859359999e-11 3 
 0 2 1 2
7 0 0  1 2 2  24 3.0000000000010001  24 3.297112403765e-13 
 -1 2 0 2
7 0 0  1 2 2  -1.939289866462e-13 1.023370086778e-13  2.7391963628879998e-13 3 
 0 2 1 2
7 0 0  1 2 2  24 3  24 3.2971096224860002e-13 
 -1 2 0 2
1 -2.8281898074721424e-11 -1.0718173052797769e-13 1 1.8952111580496221e-14 
1 -1.939289866462e-13 1.023370086778e-13 1 1.010443898688e-14 
1 -2.446733728089e-11 3.2971025043960001e-13 1 2.9658710597270001e-20 
1 -1.4516400221899999e-13 3.2971025043930001e-13 1 4.1247385962600001e-20 
7 0 0  1 2 2  3 20  3 40 
 0.5 2 1 2
7 0 0  1 2 2  3 5.5162545329919999e-16  3 20 
 0 2 0.5 2
7 0 0  1 2 2  3 20  3 40 
 0.5 2 1 2
7 0 0  1 2 2  3 9.8769082136949994e-16  3 20 
 0 2 0.5 2
7 0 0  1 2 2  -9.6100905011549996e-13 86.799999999999997  -5.0626169922909996e-13 -3.6005555319450002e-16 
 -0.5 2 0 2
7 0 0  1 2 2  -9.6100904928760001e-13 173.59999999999999  -9.6089802615710001e-13 86.799999999999997 
 -1 2 -0.5 2
1 2.251556670245e-13 3 1 0 
1 -2.446881600729e-11 3 1 0 
1 -4.7635299249600002e-14 3 1 -6.2912638062089998e-16 
1 -2.4465168441510001e-11 3 1 -6.2912638062029996e-16 
7 0 0  1 2 2  4.0959683561549999e-13 20  4.0959379984940001e-13 40 
 0.5 2 1 2
7 0 0  1 2 2  -4.5150948943490001e-14 2.8738344569039999e-16  -4.5148780564240002e-14 20 
 0 2 0.5 2
7 0 0  1 2 2  -4.4266023130310002e-14 20  -4.4262987372590003e-14 40 
 0.5 2 1 2
7 0 0  1 2 2  -4.4266890492049997e-14 1.019450236889e-15  -4.9901033825909998e-13 20 
 0 2 0.5 2
7 0 0  1 2 2  2.9999999999989999 86.799999999999997  2.9999999999989999 9.5783623450879999e-15 
 -0.5 2 0 2
7 0 0  1 2 2  2.9999999999989999 173.59999999999999  2.9999999999989999 86.799999999999997 
 -1 2 -0.5 2
1 3.034465039516e-14 20 1 0 
1 -4.2440270048289999e-13 20 1 0 
1 4.6705894360400002e-13 40 1 0 
1 1.231419481111e-14 2.8738344569049998e-16 1 8.8080669202910002e-17 
1 3.03409641245e-14 20 1 0 
1 -4.2440335100419999e-13 20 1 0 
1 2.7679464623119999e-14 40 1 0 
1 2.7675561503660002e-14 1.019450236889e-15 1 -1.058647183986e-17 
1 -1.6509016210579999e-13 86.799999999999997 1 0 
1 -1.6520118606419999e-13 86.799999999999997 1 0 
1 -9.3444047655079995e-13 173.59999999999999 1 0 
1 -1.1172942198473197e-12 -3.0589966249463132e-16 1 4.1510562481767815e-15 
Curves 42
7 0 0  1 2 2  -2923.5 14 1922.5  -2923.5 -13.99999999998 1922.5 
 0.23076923076899999 2 0.76923076923 2
7 0 0  1 2 2  -2923.5 -13.99999999998 1922.5  -2920.5 -13.99999999998 1922.5 
 0 2 1 2
7 0 0  1 2 2  -2920.5 -13.99999999998 1922.5  -2920.5 14 1922.5 
 -0.76923076923 2 -0.23076923076899999 2
7 0 0  1 2 2  -2920.5 14 1922.5  -2923.5 14 1922.5 
 -1 2 0 2
7 0 0  1 2 2  -2923.5 -26 1910.5  -2923.5 -26 1843.5 
 0.131868131868 2 0.86813186813099996 2
7 0 0  1 2 2  -2923.5 -26 1843.5  -2920.5 -26 1843.5 
 0 2 1 2
7 0 0  1 2 2  -2920.5 -26 1843.5  -2920.5 -26 1910.5 
 -0.86813186813099996 2 -0.131868131868 2
7 0 0  1 2 2  -2920.5 -26 1910.5  -2923.5 -26 1910.5 
 -1 2 0 2
7 0 0  1 2 2  -2923.5 -14 1831.5  -2923.5 13.999999999983 1831.5 
 0.23076923076899999 2 0.76923076923 2
7 0 0  1 2 2  -2923.5 13.999999999983 1831.5  -2920.5 13.999999999983 1831.5 
 0 2 1 2
7 0 0  1 2 2  -2920.5 13.999999999983 1831.5  -2920.5 -14 1831.5 
 -0.76923076923 2 -0.23076923076899999 2
7 0 0  1 2 2  -2920.5 -14 1831.5  -2923.5 -14 1831.5 
 -1 2 0 2
7 0 0  1 2 2  -2923.5 26 1843.5  -2923.5 26 1910.5 
 0.131868131868 2 0.86813186813099996 2
7 0 0  1 2 2  -2923.5 26 1910.5  -2920.5 26 1910.5 
 0 2 1 2
7 0 0  1 2 2  -2920.5 26 1910.5  -2920.5 26 1843.5 
 -0.86813186813099996 2 -0.131868131868 2
7 0 0  1 2 2  -2920.5 26 1843.5  -2923.5 26 1843.5 
 -1 2 0 2
7 1 0  2 3 2  -2923.5 -13.99999999998 1922.5  1 -2923.5 -25.999999999989999 1922.5  0.70710678118699999 -2923.5 -26 1910.5  1
 0 3 24 3
7 1 0  2 3 2  -2923.5 26 1910.5  1 -2923.5 26 1922.5  0.70710678118699999 -2923.5 14 1922.5  1
 0 3 24 3
7 1 0  2 3 2  -2923.5 13.999999999983 1831.5  1 -2923.5 25.999999999991001 1831.5  0.70710678118699999 -2923.5 26 1843.5  1
 0 3 24 3
7 1 0  2 3 2  -2923.5 -26 1843.5  1 -2923.5 -26 1831.5  0.70710678118699999 -2923.5 -14 1831.5  1
 0 3 24 3
7 1 0  2 5 3  -2923.5 -0.059228782562299999 1915.5  1 -2923.5 4.9407712174379999 1915.5  0.70710678118699999 -2923.5 4.9407712174379999 1910.5  1 -2923.5 4.9407712174379999 1905.5  0.70710678118699999 -2923.5 -0.059228782562299999 1905.5  1
 0.5 3 0.75 2 1 3
7 1 0  2 5 3  -2923.5 -0.059228782562299999 1905.5  1 -2923.5 -5.0592287825620001 1905.5  0.70710678118699999 -2923.5 -5.0592287825620001 1910.5  1 -2923.5 -5.0592287825620001 1915.5  0.70710678118699999 -2923.5 -0.059228782562299999 1915.5  1
 0 3 0.25 2 0.5 3
7 1 0  2 5 3  -2923.5 -0.057003135657269999 1848.5  1 -2923.5 4.9429968643429998 1848.5  0.70710678118699999 -2923.5 4.9429968643429998 1843.5  1 -2923.5 4.9429968643429998 1838.5  0.70710678118699999 -2923.5 -0.057003135657269999 1838.5  1
 0.5 3 0.75 2 1 3
7 1 0  2 5 3  -2923.5 -0.057003135657269999 1838.5  1 -2923.5 -5.0570031356570002 1838.5  0.70710678118699999 -2923.5 -5.0570031356570002 1843.5  1 -2923.5 -5.0570031356570002 1848.5  0.70710678118699999 -2923.5 -0.057003135657269999 1848.5  1
 0 3 0.25 2 0.5 3
7 1 0  2 5 3  -2923.5 6.0584517520970003e-28 1899.2  1 -2923.5 21.699999999999999 1899.2  0.70710678118699999 -2923.5 21.699999999999999 1877.5  1 -2923.5 21.699999999999999 1855.8  0.70710678118699999 -2923.5 -2.4233807008389999e-27 1855.8  1
 -0.5 3 -0.25 2 0 3
7 1 0  2 5 3  -2923.5 -2.4233807008389999e-27 1855.8  1 -2923.5 -21.699999999999999 1855.8  0.70710678118699999 -2923.5 -21.699999999999999 1877.5  1 -2923.5 -21.699999999999999 1899.2  0.70710678118699999 -2923.5 6.0584517520970003e-28 1899.2  1
 -1 3 -0.75 2 -0.5 3
7 1 0  2 3 2  -2920.5 -26 1843.5  1 -2920.5 -26 1831.5  0.70710678118699999 -2920.5 -14 1831.5  1
 0 3 24 3
7 1 0  2 3 2  -2920.5 13.999999999983 1831.5  1 -2920.5 25.999999999991001 1831.5  0.70710678118699999 -2920.5 26 1843.5  1
 0 3 24 3
7 1 0  2 3 2  -2920.5 26 1910.5  1 -2920.5 26 1922.5  0.70710678118699999 -2920.5 14 1922.5  1
 0 3 24 3
7 1 0  2 3 2  -2920.5 -13.99999999998 1922.5  1 -2920.5 -25.999999999989999 1922.5  0.70710678118699999 -2920.5 -26 1910.5  1
 0 3 24 3
7 1 0  2 5 3  -2920.5 -0.059228782562229999 1915.5  1 -2920.5 4.9407712174379999 1915.5  0.70710678118699999 -2920.5 4.9407712174379999 1910.5  1 -2920.5 4.9407712174379999 1905.5  0.70710678118699999 -2920.5 -0.059228782562299999 1905.5  1
 0.5 3 0.75 2 1 3
7 1 0  2 5 3  -2920.5 -0.059228782562299999 1905.5  1 -2920.5 -5.0592287825620001 1905.5  0.70710678118699999 -2920.5 -5.0592287825620001 1910.5  1 -2920.5 -5.0592287825620001 1915.5  0.70710678118699999 -2920.5 -0.059228782562229999 1915.5  1
 0 3 0.25 2 0.5 3
7 1 0  2 5 3  -2920.5 -0.057003135657269999 1848.5  1 -2920.5 4.9429968643429998 1848.5  0.70710678118699999 -2920.5 4.9429968643429998 1843.5  1 -2920.5 4.9429968643429998 1838.5  0.70710678118699999 -2920.5 -0.057003135657269999 1838.5  1
 0.5 3 0.75 2 1 3
7 1 0  2 5 3  -2920.5 -0.057003135657269999 1838.5  1 -2920.5 -5.0570031356570002 1838.5  0.70710678118699999 -2920.5 -5.0570031356570002 1843.5  1 -2920.5 -5.0570031356570002 1848.5  0.70710678118699999 -2920.5 -0.057003135657269999 1848.5  1
 0 3 0.25 2 0.5 3
7 1 0  2 5 3  -2920.5 -9.4070758684209992e-15 1899.2  1 -2920.5 21.699999999999999 1899.2  0.70710678118699999 -2920.5 21.699999999999999 1877.5  1 -2920.5 21.699999999999999 1855.8  0.70710678118699999 -2920.5 -1.150982042765e-14 1855.8  1
 -0.5 3 -0.25 2 0 3
7 1 0  2 5 3  -2920.5 -1.150982042765e-14 1855.8  1 -2920.5 -21.699999999999999 1855.8  0.70710678118699999 -2920.5 -21.699999999999999 1877.5  1 -2920.5 -21.699999999999999 1899.2  0.70710678118699999 -2920.5 -9.4070758684209992e-15 1899.2  1
 -1 3 -0.75 2 -0.5 3
7 0 0  1 2 2  -2920.5 -0.059228782562299999 1915.5  -2923.5 -0.059228782562299999 1915.5 
 -7.5495165674510001e-14 2 3 2
7 0 0  1 2 2  -2920.5 -0.059228782562299999 1905.5  -2923.5 -0.059228782562299999 1905.5 
 -5.7465143754599998e-14 2 3 2
7 0 0  1 2 2  -2920.5 -0.057003135657269999 1848.5  -2923.5 -0.057003135657269999 1848.5 
 -7.4606987254810002e-14 2 3 2
7 0 0  1 2 2  -2920.5 -0.057003135657269999 1838.5  -2923.5 -0.057003135657269999 1838.5 
 -7.1942451995710005e-14 2 3 2
7 0 0  1 2 2  -2923.5 4.8467614016779998e-27 1899.2  -2920.5 -1.8814151736830001e-14 1899.2 
 -7.9580786405129999e-13 2 2.9999999999979998 2
7 0 0  1 2 2  -2923.5 -2.4233807008389999e-27 1855.8  -2920.5 -1.150982042765e-14 1855.8 
 -2.6568572736780001e-14 2 2.9999999999989999 2
Polygon3D 0
PolygonOnTriangulations 0
Surfaces 16
1 -2923.5 26 1922.5 0 0 1 1 0 -0 -0 1 0 
1 -2923.5 30.550000000000001 1927.05 -1 0 0 0 0 -1 -0 -1 -0 
9 0 1 0 0 2 1 3 2 2 2 -2923.5 -14 1922.5  1 -2920.5 -14 1922.5  1 
-2923.5 -26 1922.5  0.70710678118699999 -2920.5 -26 1922.5  0.70710678118699999 
-2923.5 -26 1910.5  1 -2920.5 -26 1910.5  1 

0 3
24 3

0 2
3 2

1 -2920.5 30.550000000000001 1927.05 1 0 0 -0 0 1 0 -1 0 
9 0 1 0 0 2 1 3 2 2 2 -2923.5 26 1910.5  1 -2920.5 26 1910.5  1 
-2923.5 26 1922.5  0.70710678118699999 -2920.5 26 1922.5  0.70710678118699999 
-2923.5 14 1922.5  1 -2920.5 14 1922.5  1 

0 3
24 3

0 2
3 2

1 -2923.5 -26 1922.5 0 -1 0 0 -0 -1 1 0 0 
9 0 1 0 0 2 1 3 2 2 2 -2923.5 -26 1843.5  1 -2920.5 -26 1843.5  1 
-2923.5 -26 1831.5  0.70710678118699999 -2920.5 -26 1831.5  0.70710678118699999 
-2923.5 -14 1831.5  1 -2920.5 -14 1831.5  1 

0 3
24 3

0 2
3 2

1 -2923.5 -26 1831.5 0 0 -1 -1 0 -0 0 1 0 
9 0 1 0 0 2 1 3 2 2 2 -2923.5 14 1831.5  1 -2920.5 14 1831.5  1 
-2923.5 26 1831.5  0.70710678118699999 -2920.5 26 1831.5  0.70710678118699999 
-2923.5 26 1843.5  1 -2920.5 26 1843.5  1 

0 3
24 3

0 2
3 2

1 -2923.5 26 1831.5 0 1 0 0 -0 1 1 0 -0 
9 1 0 0 0 1 2 2 5 2 3 -2920.5 -0.059228782562299999 1915.5  1 -2920.5 4.9407712174379999 1915.5  0.70710678118699999 -2920.5 4.9407712174379999 1910.5  1 -2920.5 4.9407712174379999 1905.5  0.70710678118699999 -2920.5 -0.059228782562299999 1905.5  1 
-2980.5 -0.059228782562309998 1915.5  1 -2980.5 4.9407712174379999 1915.5  0.70710678118699999 -2980.5 4.9407712174379999 1910.5  1 -2980.5 4.9407712174379999 1905.5  0.70710678118699999 -2980.5 -0.059228782562299999 1905.5  1 

-7.5495165674510001e-14 2
60 2

20 3
30 2
40 3

9 1 0 0 0 1 2 2 5 2 3 -2920.5 -0.059228782562299999 1905.5  1 -2920.5 -5.0592287825620001 1905.5  0.70710678118699999 -2920.5 -5.0592287825620001 1910.5  1 -2920.5 -5.0592287825620001 1915.5  0.70710678118699999 -2920.5 -0.059228782562299999 1915.5  1 
-2980.5 -0.059228782562299999 1905.5  1 -2980.5 -5.0592287825620001 1905.5  0.70710678118699999 -2980.5 -5.0592287825620001 1910.5  1 -2980.5 -5.0592287825620001 1915.5  0.70710678118699999 -2980.5 -0.059228782562309998 1915.5  1 

-7.5495165674510001e-14 2
60 2

0 3
10 2
20 3

9 1 0 0 0 1 2 2 5 2 3 -2920.5 -0.057003135657269999 1848.5  1 -2920.5 4.9429968643429998 1848.5  0.70710678118699999 -2920.5 4.9429968643429998 1843.5  1 -2920.5 4.9429968643429998 1838.5  0.70710678118699999 -2920.5 -0.057003135657269999 1838.5  1 
-2980.5 -0.057003135657269999 1848.5  1 -2980.5 4.9429968643429998 1848.5  0.70710678118699999 -2980.5 4.9429968643429998 1843.5  1 -2980.5 4.9429968643429998 1838.5  0.70710678118699999 -2980.5 -0.057003135657269999 1838.5  1 

-7.4606987254810002e-14 2
60 2

20 3
30 2
40 3

9 1 0 0 0 1 2 2 5 2 3 -2920.5 -0.057003135657269999 1838.5  1 -2920.5 -5.0570031356570002 1838.5  0.70710678118699999 -2920.5 -5.0570031356570002 1843.5  1 -2920.5 -5.0570031356570002 1848.5  0.70710678118699999 -2920.5 -0.057003135657269999 1848.5  1 
-2980.5 -0.057003135657269999 1838.5  1 -2980.5 -5.0570031356570002 1838.5  0.70710678118699999 -2980.5 -5.0570031356570002 1843.5  1 -2980.5 -5.0570031356570002 1848.5  0.70710678118699999 -2980.5 -0.057003135657269999 1848.5  1 

-7.4606987254810002e-14 2
60 2

0 3
10 2
20 3

9 1 0 0 0 1 2 2 5 2 3 -2923.5 5.250658185151e-27 1855.8  1 -2923.5 21.699999999999999 1855.8  0.70710678118699999 -2923.5 21.699999999999999 1877.5  1 -2923.5 21.699999999999999 1899.2  0.70710678118699999 -2923.5 4.8467614016779998e-27 1899.2  1 
2434.1604801009998 -3.4258727799049998e-11 1855.8  1 2434.1604801009998 21.699999999966 1855.8  0.70710678118699999 2434.1604801009998 21.699999999966 1877.5  1 2434.1604801009998 21.699999999966 1899.2  0.70710678118699999 2434.1604801009998 -3.3599945742369997e-11 1899.2  1 

-7.9580786405129999e-13 2
5357.6604801009998 2

0 3
43.399999999999999 2
86.799999999999997 3

9 1 0 0 0 1 2 2 5 2 3 -2923.5 4.8467614016779998e-27 1899.2  1 -2923.5 -21.699999999999999 1899.2  0.70710678118699999 -2923.5 -21.699999999999999 1877.5  1 -2923.5 -21.699999999999999 1855.8  0.70710678118699999 -2923.5 5.250658185151e-27 1855.8  1 
2434.1604801009998 -3.3599945742369997e-11 1899.2  1 2434.1604801009998 -21.700000000029998 1899.2  0.70710678118699999 2434.1604801009998 -21.700000000029998 1877.5  1 2434.1604801009998 -21.700000000029998 1855.8  0.70710678118699999 2434.1604801009998 -3.4258727799049998e-11 1855.8  1 

-7.9580786405129999e-13 2
5357.6604801009998 2

86.799999999999997 3
130.19999999999999 2
173.59999999999999 3

Triangulations 0

TShapes 110
Ve
1e-07
-2923.5 14 1922.5
0 0

0101101
*
Ve
1e-07
-2923.5 -13.99999999998 1922.5
0 0

0101101
*
Ed
 1e-07 1 1 0
1  1 0 0.230769230769 0.76923076923
4 C0 1 0 2 0
0

0101000
+110 0 -109 0 *
Ve
1e-07
-2920.5 -13.99999999998 1922.5
0 0

0101101
*
Ed
 1e-07 1 1 0
1  2 0 0 1
2  1 3 0 0 1
4 G1 1 0 3 0
0

0101000
+109 0 -107 0 *
Ve
1e-07
-2920.5 14 1922.5
0 0

0101101
*
Ed
 1e-07 1 1 0
1  3 0 -0.76923076923 -0.230769230769
4 C0 1 0 4 0
0

0101000
+107 0 -105 0 *
Ed
 1e-07 1 1 0
1  4 0 -1 0
2  2 5 0 -1 0
4 G1 1 0 5 0
0

0101000
+105 0 -110 0 *
Wi

0101100
+108 0 +106 0 +104 0 +103 0 *
Fa
0  1e-07 1 0

0101000
+102 0 *
Ve
1e-07
-2923.5 -26 1910.5
0 0

0101101
*
Ve
1e-07
-2923.5 -26 1843.5
0 0

0101101
*
Ed
 1e-07 1 1 0
1  5 0 0.131868131868 0.868131868131
4 C0 6 0 2 0
0

0101000
+100 0 -99 0 *
Ve
1e-07
-2920.5 -26 1843.5
0 0

0101101
*
Ed
 1e-07 1 1 0
1  6 0 0 1
2  3 7 0 0 1
4 G1 6 0 7 0
0

0101000
+99 0 -97 0 *
Ve
1e-07
-2920.5 -26 1910.5
0 0

0101101
*
Ed
 1e-07 1 1 0
1  7 0 -0.868131868131 -0.131868131868
4 C0 6 0 4 0
0

0101000
+97 0 -95 0 *
Ed
 1e-07 1 1 0
1  8 0 -1 0
2  4 3 0 -1 0
4 G1 6 0 3 0
0

0101000
+95 0 -100 0 *
Wi

0101100
+98 0 +96 0 +94 0 +93 0 *
Fa
0  1e-07 6 0

0101000
+92 0 *
Ve
1e-07
-2923.5 -14 1831.5
0 0

0101101
*
Ve
1e-07
-2923.5 13.999999999983 1831.5
0 0

0101101
*
Ed
 1e-07 1 1 0
1  9 0 0.230769230769 0.76923076923
4 C0 8 0 2 0
0

0101000
+90 0 -89 0 *
Ve
1e-07
-2920.5 13.999999999983 1831.5
0 0

0101101
*
Ed
 1e-07 1 1 0
1  10 0 0 1
2  5 9 0 0 1
4 G1 8 0 9 0
0

0101000
+89 0 -87 0 *
Ve
1e-07
-2920.5 -14 1831.5
0 0

0101101
*
Ed
 1e-07 1 1 0
1  11 0 -0.76923076923 -0.230769230769
4 C0 8 0 4 0
0

0101000
+87 0 -85 0 *
Ed
 1e-07 1 1 0
1  12 0 -1 0
2  6 7 0 -1 0
4 G1 8 0 7 0
0

0101000
+85 0 -90 0 *
Wi

0101100
+88 0 +86 0 +84 0 +83 0 *
Fa
0  1e-07 8 0

0101000
+82 0 *
Ve
1e-07
-2923.5 26 1843.5
0 0

0101101
*
Ve
1e-07
-2923.5 26 1910.5
0 0

0101101
*
Ed
 1e-07 1 1 0
1  13 0 0.131868131868 0.868131868131
4 C0 10 0 2 0
0

0101000
+80 0 -79 0 *
Ve
1e-07
-2920.5 26 1910.5
0 0

0101101
*
Ed
 1e-07 1 1 0
1  14 0 0 1
2  7 5 0 0 1
4 G1 10 0 5 0
0

0101000
+79 0 -77 0 *
Ve
1e-07
-2920.5 26 1843.5
0 0

0101101
*
Ed
 1e-07 1 1 0
1  15 0 -0.868131868131 -0.131868131868
4 C0 10 0 4 0
0

0101000
+77 0 -75 0 *
Ed
 1e-07 1 1 0
1  16 0 -1 0
2  8 9 0 -1 0
4 G1 10 0 9 0
0

0101000
+75 0 -80 0 *
Wi

0101100
+78 0 +76 0 +74 0 +73 0 *
Fa
0  1e-07 10 0

0101000
+72 0 *
Ed
 1e-07 1 1 0
1  17 0 0 24
2  9 3 0 0 24
4 C0 2 0 3 0
0

0101000
+109 0 -100 0 *
Ed
 1e-07 1 1 0
1  18 0 0 24
2  10 5 0 0 24
4 C0 2 0 5 0
0

0101000
+79 0 -110 0 *
Ed
 1e-07 1 1 0
1  19 0 0 24
2  11 9 0 0 24
4 C0 2 0 9 0
0

0101000
+89 0 -80 0 *
Ed
 1e-07 1 1 0
1  20 0 0 24
2  12 7 0 0 24
4 C0 2 0 7 0
0

0101000
+99 0 -90 0 *
Wi

0101100
-70 0 -108 0 -69 0 -78 0 -68 0 -88 0 -67 0 -98 0 *
Ve
1e-07
-2923.5 -0.0592287825623 1915.5
0 0

0101101
*
Ve
1e-07
-2923.5 -0.0592287825623 1905.5
0 0

0101101
*
Ed
 1e-07 1 1 0
1  21 0 0.5 1
2  13 11 0 0.5 1
4 C0 2 0 11 0
0

0101000
+65 0 -64 0 *
Ed
 1e-07 1 1 0
1  22 0 0 0.5
2  14 12 0 0 0.5
4 C0 2 0 12 0
0

0101000
+64 0 -65 0 *
Wi

0101100
-63 0 -62 0 *
Ve
1e-07
-2923.5 -0.05700313565727 1848.5
0 0

0101101
*
Ve
1e-07
-2923.5 -0.05700313565727 1838.5
0 0

0101101
*
Ed
 1e-07 1 1 0
1  23 0 0.5 1
2  15 13 0 0.5 1
4 C0 2 0 13 0
0

0101000
+60 0 -59 0 *
Ed
 1e-07 1 1 0
1  24 0 0 0.5
2  16 14 0 0 0.5
4 C0 2 0 14 0
0

0101000
+59 0 -60 0 *
Wi

0101100
-58 0 -57 0 *
Ve
1e-07
-2923.5 6.058451752097e-28 1899.2
0 0

0101101
*
Ve
1e-07
-2923.5 -2.423380700839e-27 1855.8
0 0

0101101
*
Ed
 1e-07 1 1 0
1  25 0 -0.5 0
2  17 15 0 -0.5 0
4 C0 2 0 15 0
0

0101000
+55 0 -54 0 *
Ed
 1e-07 1 1 0
1  26 0 -1 -0.5
2  18 16 0 -1 -0.5
4 C0 2 0 16 0
0

0101000
+54 0 -55 0 *
Wi

0101100
-53 0 -52 0 *
Fa
0  1e-07 2 0

0101000
+66 0 +61 0 +56 0 +51 0 *
Ed
 1e-07 1 1 0
1  27 0 0 24
2  19 7 0 0 24
4 C0 4 0 7 0
0

0101000
+97 0 -85 0 *
Ed
 1e-07 1 1 0
1  28 0 0 24
2  20 9 0 0 24
4 C0 4 0 9 0
0

0101000
+87 0 -75 0 *
Ed
 1e-07 1 1 0
1  29 0 0 24
2  21 5 0 0 24
4 C0 4 0 5 0
0

0101000
+77 0 -105 0 *
Ed
 1e-07 1 1 0
1  30 0 0 24
2  22 3 0 0 24
4 C0 4 0 3 0
0

0101000
+107 0 -95 0 *
Wi

0101100
-94 0 +49 0 -84 0 +48 0 -74 0 +47 0 -104 0 +46 0 *
Ve
1e-07
-2920.5 -0.05922878256223 1915.5
0 0

0101101
*
Ve
1e-07
-2920.5 -0.0592287825623 1905.5
0 0

0101101
*
Ed
 1e-07 1 1 0
1  31 0 0.5 1
2  23 11 0 0.5 1
4 C0 4 0 11 0
0

0101000
+44 0 -43 0 *
Ed
 1e-07 1 1 0
1  32 0 0 0.5
2  24 12 0 0 0.5
4 C0 4 0 12 0
0

0101000
+43 0 -44 0 *
Wi

0101100
+42 0 +41 0 *
Ve
1e-07
-2920.5 -0.05700313565727 1848.5
0 0

0101101
*
Ve
1e-07
-2920.5 -0.05700313565727 1838.5
0 0

0101101
*
Ed
 1e-07 1 1 0
1  33 0 0.5 1
2  25 13 0 0.5 1
4 C0 4 0 13 0
0

0101000
+39 0 -38 0 *
Ed
 1e-07 1 1 0
1  34 0 0 0.5
2  26 14 0 0 0.5
4 C0 4 0 14 0
0

0101000
+38 0 -39 0 *
Wi

0101100
+37 0 +36 0 *
Ve
1e-07
-2920.5 -9.407075868421e-15 1899.2
0 0

0101101
*
Ve
1e-07
-2920.5 -1.150982042765e-14 1855.8
0 0

0101101
*
Ed
 1e-07 1 1 0
1  35 0 -0.5 0
2  27 15 0 -0.5 0
4 C0 4 0 15 0
0

0101000
+34 0 -33 0 *
Ed
 1e-07 1 1 0
1  36 0 -1 -0.5
2  28 16 0 -1 -0.5
4 C0 4 0 16 0
0

0101000
+33 0 -34 0 *
Wi

0101100
+32 0 +31 0 *
Fa
0  1e-07 4 0

0101000
+45 0 +40 0 +35 0 +30 0 *
Ed
 1e-07 1 1 0
1  37 0 -7.549516567451e-14 3
2  29 11 0 -7.549516567451e-14 3
2  30 12 0 -7.549516567451e-14 3
4 G2 11 0 12 0
0

0101000
+44 0 -65 0 *
Ed
 1e-07 1 1 0
1  38 0 -5.74651437546e-14 3
2  31 11 0 -5.74651437546e-14 3
2  32 12 0 -5.74651437546e-14 3
4 G2 11 0 12 0
0

0101000
+43 0 -64 0 *
Wi

0101100
+28 0 +63 0 -27 0 -42 0 *
Fa
0  1e-07 11 0

0101000
+26 0 *
Ed
 1e-07 1 1 0
1  39 0 -7.460698725481e-14 3
2  33 13 0 -7.460698725481e-14 3
2  34 14 0 -7.460698725481e-14 3
4 G2 13 0 14 0
0

0101000
+39 0 -60 0 *
Ed
 1e-07 1 1 0
1  40 0 -7.194245199571e-14 3
2  35 13 0 -7.194245199571e-14 3
2  36 14 0 -7.194245199571e-14 3
4 G2 13 0 14 0
0

0101000
+38 0 -59 0 *
Wi

0101100
+24 0 +58 0 -23 0 -37 0 *
Fa
0  1e-07 13 0

0101000
+22 0 *
Wi

0101100
+67 0 -83 0 -49 0 -96 0 *
Fa
0  1e-07 7 0

0101000
+20 0 *
Wi

0101100
+70 0 -93 0 -46 0 -106 0 *
Fa
0  1e-07 3 0

0101000
+18 0 *
Wi

0101100
+69 0 -103 0 -47 0 -76 0 *
Fa
0  1e-07 5 0

0101000
+16 0 *
Wi

0101100
+68 0 -73 0 -48 0 -86 0 *
Fa
0  1e-07 9 0

0101000
+14 0 *
Ed
 1e-07 1 1 0
1  41 0 -7.958078640513e-13 2.999999999998
2  37 16 0 -7.958078640513e-13 2.999999999998
2  38 15 0 -7.958078640513e-13 2.999999999998
4 G2 16 0 15 0
0

0101000
+55 0 -34 0 *
Ed
 1e-07 1 1 0
1  42 0 -2.656857273678e-14 2.999999999999
2  39 16 0 -2.656857273678e-14 2.999999999999
2  40 15 0 -2.656857273678e-14 2.999999999999
4 G2 16 0 15 0
0

0101000
+54 0 -33 0 *
Wi

0101100
+12 0 -31 0 -11 0 +52 0 *
Fa
0  1e-07 16 0

0101000
+10 0 *
Wi

0101100
-41 0 +27 0 +62 0 -28 0 *
Fa
0  1e-07 12 0

0101000
+8 0 *
Wi

0101100
-36 0 +23 0 +57 0 -24 0 *
Fa
0  1e-07 14 0

0101000
+6 0 *
Wi

0101100
+53 0 +11 0 -32 0 -12 0 *
Fa
0  1e-07 15 0

0101000
+4 0 *
Sh

0101100
+101 0 +91 0 +81 0 +71 0 +50 0 +29 0 +25 0 +21 0 +19 0 +17 0 
+15 0 +13 0 +9 0 +7 0 +5 0 +3 0 *
So

0100000
+2 0 *

+1 0 