DBRep_DrawableShape

CASCADE Topology V1, (c) Matra-Datavision
Locations 0
Curve2ds 16
1 -4.7123889803849996 50 1 0 
1 0 0 0 1 
1 6.2831853071795862 0 -0 1 
1 0 5 1 0 
1 0 0 1 0 
1 1.570796326795 0 0 1 
1 7.8539816339745858 50 -1 0 
1 0 0 0 1 
1 -1.570796326795 50 1 0 
1 4.7123889803845866 0 -0 1 
1 -4.1389114358025836e-13 5 1 -0 
1 0 -6.2831853071795862 0 1 
1 0 -1.5707963267948966 1 0 
1 6.2831853071800001 5 -1 -0 
7 0 0  3 25 23  1.5707963267948966 -1.5707963267948966  1.5707963267948966 -1.5469963824495192  1.5707963267948966 -1.4993964937587647  1.5707963267948966 -1.4279966607226338  1.5707963267948968 -1.3565968276865012  1.5707963267948963 -1.2851969946503707  1.5707963267948968 -1.2137971616142385  1.5707963267948966 -1.1423973285781071  1.5707963267948961 -1.0709974955419741  1.5707963267948966 -0.99959766250584314  1.5707963267948963 -0.92819782946971197  1.5707963267948968 -0.85679799643357901  1.5707963267948966 -0.78539816339744828  1.5707963267948968 -0.71399833036131788  1.5707963267948968 -0.64259849732518415  1.5707963267948968 -0.57119866428905464  1.5707963267948963 -0.49979883125292196  1.5707963267948968 -0.42839899821678973  1.5707963267948961 -0.35699916518065783  1.5707963267948966 -0.28559933214452754  1.5707963267948966 -0.21419949910839553  1.5707963267948959 -0.14279966607226252  1.570796326794897 -0.071399833036131635  1.5707963267948966 -0.023799944345377428  1.5707963267948966 0 
 4.7123889803846897 4 4.7837888134208217 1 4.8551886464569529 1 4.926588479493085 1 4.9979883125292162 1 5.0693881455653482 1 5.1407879786014794 1 5.2121878116376115 1 5.2835876446737426 1 5.3549874777098747 1 5.4263873107460068 1 5.497787143782138 1 5.5691869768182691 1 5.6405868098544012 1 5.7119866428905333 1 5.7833864759266644 1 5.8547863089627965 1 5.9261861419989277 1 5.9975859750350597 1 6.0689858080711918 1 6.140385641107323 1 6.2117854741434542 1 6.2831853071795862 4
1 1.570796326795 0 0 1 
Curves 30
1 100 -50 50 0 -1 0 
1 100 -100 0 0 0 1 
1 100 0 0 0 -1 0 
1 100 0 0 0 0 1 
1 100 0 100 0 -1 0 
1 100 -50 50 0 0 1 
2 100 -55 55 1 0 0 -0 1 0 0 -0 1 5
1 50 -55 50 1 0 0 
1 55 -50 50 0 -1 0 
1 50 -100 50 1 0 0 
2 55 -55 55 1 -0 0 0 0 -1 0 1 0 5
1 50 -50 55 1 0 0 
1 50 -100 50 0 0 1 
1 0 -100 100 1 0 0 
1 0 -100 0 0 0 1 
1 0 -100 0 1 0 0 
2 55 -100 55 -0 1 0 1 0 0 0 0 -1 5
1 50 -50 100 1 0 0 
1 55 -50 50 0 0 1 
1 0 0 0 1 0 0 
1 0 0 0 0 -1 0 
1 0 0 100 1 0 0 
1 0 0 100 0 -1 0 
1 50 -50 100 0 -1 0 
2 55 -55 100 0 0 1 1 0 -0 -0 1 0 5
1 0 0 0 0 0 1 
1 50 -50 55 0 -1 0 
2 55 -55 55 0 -1 0 0 0 -1 1 0 0 5
2 55 -55 55 0 -6.1232339957370002e-17 -1 0 1 -6.1232339957370002e-17 1 0 0 5
1 50 -55 50 0 0 1 
Polygon3D 0
PolygonOnTriangulations 0
Surfaces 13
1 100 0 0 1 0 0 0 0 1 0 -1 0 
1 50 -50 50 0 0 1 1 0 -0 -0 1 0 
1 0 -100 0 0 -1 0 1 0 0 -0 0 1 
1 0 0 0 0 0 1 1 0 -0 -0 1 0 
1 0 0 0 0 -1 0 1 0 0 -0 0 1 
1 0 0 100 0 0 1 1 0 -0 -0 1 0 
1 50 -50 50 0 -1 0 1 0 0 -0 0 1 
2 50 -55 55 1 0 0 0 0 -1 -0 1 0 5
2 55 -50 55 0 -1 0 0 0 -1 1 0 0 5
4 55 -55 55 1 0 0 0 0 -1 -0 1 0 5
1 50 -50 50 1 0 0 0 0 1 0 -1 0 
1 0 0 0 1 0 0 0 0 1 0 -1 0 
2 55 -55 50 0 0 1 0 1 0 -1 0 0 5
Triangulations 0

TShapes 78
Ve
1e-07
100 -55 50
0 0

0101101
*
Ve
1e-07
100 -100 50
0 0

0101101
*
Ed
 1e-07 1 1 0
1  1 0 5 50
4 C0 1 0 2 0
0

0101000
+78 0 -77 0 *
Ve
1e-07
100 -100 0
0 0

0101101
*
Ed
 1e-07 1 1 0
1  2 0 0 50
4 C0 1 0 3 0
0

0101000
+75 0 -77 0 *
Ve
1e-07
100 0 0
0 0

0101101
*
Ed
 1e-07 1 1 0
1  3 0 0 100
4 C0 1 0 4 0
0

0101000
+73 0 -75 0 *
Ve
1e-07
100 0 100
0 0

0101101
*
Ed
 1e-07 1 1 0
1  4 0 0 100
4 C0 1 0 5 0
0

0101000
+73 0 -71 0 *
Ve
1e-07
100 -50 100
0 0

0101101
*
Ed
 1e-07 1 1 0
1  5 0 0 50
4 C0 1 0 6 0
0

0101000
+71 0 -69 0 *
Ve
1e-07
100 -50 55
0 0

0101101
*
Ed
 1e-07 1 1 0
1  6 0 5 50
4 C0 1 0 7 0
0

0101000
+67 0 -69 0 *
Ed
 1e-07 1 1 0
1  7 0 4.71238898038469 6.28318530717959
2  1 8 0 4.71238898038469 6.28318530717959
4 C0 1 0 8 0
0

0101000
+78 0 -67 0 *
Wi

0101100
+76 0 -74 0 -72 0 +70 0 +68 0 -66 0 -65 0 *
Fa
0  1e-07 1 0

0101000
+64 0 *
Ve
1e-07
55 -55 50
0 0

0101101
*
Ed
 1e-07 1 1 0
1  8 0 5 50
2  2 8 0 5 50
4 G1 2 0 8 0
0

0101000
+62 0 -78 0 *
Ve
1e-07
55 -100 50
0 0

0101101
*
Ed
 1e-07 1 1 0
1  9 0 5 50
2  3 9 0 5 50
4 G1 2 0 9 0
0

0101000
+62 0 -60 0 *
Ed
 1e-07 1 1 0
1  10 0 5 50
4 C0 2 0 3 0
0

0101000
+60 0 -77 0 *
Wi

0101100
-76 0 -61 0 +59 0 +58 0 *
Fa
0  1e-07 2 0

0101000
+57 0 *
Ve
1e-07
55 -50 55
0 0

0101101
*
Ed
 1e-07 1 1 0
1  11 0 0 1.5707963267949
2  4 8 0 0 1.5707963267949
2  5 10 0 0 1.5707963267949
4 G1 8 0 10 0
0

0101000
+62 0 -55 0 *
Ed
 1e-07 1 1 0
1  12 0 5 50
2  6 8 0 5 50
4 G1 8 0 7 0
0

0101000
+55 0 -67 0 *
Wi

0101100
-61 0 +54 0 +53 0 -65 0 *
Fa
0  1e-07 8 0

0101000
+52 0 *
Ve
1e-07
50 -100 55
0 0

0101101
*
Ve
1e-07
50 -100 100
0 0

0101101
*
Ed
 1e-07 1 1 0
1  13 0 5 50
4 C0 3 0 11 0
0

0101000
+50 0 -49 0 *
Ve
1e-07
0 -100 100
0 0

0101101
*
Ed
 1e-07 1 1 0
1  14 0 0 50
4 C0 3 0 6 0
0

0101000
+47 0 -49 0 *
Ve
1e-07
0 -100 0
0 0

0101101
*
Ed
 1e-07 1 1 0
1  15 0 0 100
4 C0 3 0 12 0
0

0101000
+45 0 -47 0 *
Ed
 1e-07 1 1 0
1  16 0 0 100
4 C0 3 0 4 0
0

0101000
+45 0 -75 0 *
Ed
 1e-07 1 1 0
1  17 0 1.5707963267949 3.14159265358979
2  7 9 0 1.5707963267949 3.14159265358979
4 C0 3 0 9 0
0

0101000
+60 0 -50 0 *
Wi

0101100
+48 0 -46 0 -44 0 +43 0 +74 0 -58 0 +42 0 *
Fa
0  1e-07 3 0

0101000
+41 0 *
Ve
1e-07
55 -50 100
0 0

0101101
*
Ed
 1e-07 1 1 0
1  18 0 5 50
4 C0 7 0 6 0
0

0101000
+39 0 -69 0 *
Ed
 1e-07 1 1 0
1  19 0 5 50
2  8 13 0 5 50
4 G1 7 0 13 0
0

0101000
+55 0 -39 0 *
Wi

0101100
-38 0 -37 0 +53 0 +66 0 *
Fa
0  1e-07 7 0

0101000
+36 0 *
Ve
1e-07
0 0 0
0 0

0101101
*
Ed
 1e-07 1 1 0
1  20 0 0 100
4 C0 4 0 5 0
0

0101000
+34 0 -73 0 *
Ed
 1e-07 1 1 0
1  21 0 0 100
4 C0 4 0 12 0
0

0101000
+34 0 -45 0 *
Wi

0101100
-33 0 +32 0 +43 0 -72 0 *
Fa
0  1e-07 4 0

0101000
+31 0 *
Ve
1e-07
0 0 100
0 0

0101101
*
Ed
 1e-07 1 1 0
1  22 0 0 100
4 C0 6 0 5 0
0

0101000
+29 0 -71 0 *
Ed
 1e-07 1 1 0
1  23 0 0 100
4 C0 6 0 12 0
0

0101000
+29 0 -47 0 *
Ve
1e-07
50 -55 100
0 0

0101101
*
Ed
 1e-07 1 1 0
1  24 0 5 50
4 C0 6 0 11 0
0

0101000
+26 0 -49 0 *
Ed
 1e-07 1 1 0
1  25 0 1.5707963267949 3.14159265358979
2  9 13 0 1.5707963267949 3.14159265358979
4 C0 6 0 13 0
0

0101000
+39 0 -26 0 *
Wi

0101100
+38 0 -68 0 -28 0 +27 0 +46 0 -25 0 -24 0 *
Fa
0  1e-07 6 0

0101000
+23 0 *
Ed
 1e-07 1 1 0
1  26 0 0 100
4 C0 5 0 12 0
0

0101000
+34 0 -29 0 *
Wi

0101100
-21 0 +33 0 +70 0 -28 0 *
Fa
0  1e-07 5 0

0101000
+20 0 *
Ve
1e-07
50 -55 55
0 0

0101101
*
Ed
 1e-07 1 1 0
1  27 0 5 50
2  10 9 0 5 50
4 G1 9 0 11 0
0

0101000
+18 0 -50 0 *
Ed
 1e-07 1 1 0
1  28 0 4.71238898038469 6.28318530717959
2  11 9 0 4.71238898038469 6.28318530717959
2  12 10 0 4.71238898038469 6.28318530717959
4 G1 9 0 10 0
0

0101000
+18 0 -62 0 *
Wi

0101100
+59 0 +42 0 -17 0 +16 0 *
Fa
0  1e-07 9 0

0101000
+15 0 *
Ed
 1e-07 1 1 1
2  13 10 0 0 1.5707963267949
0

0101000
+18 0 -18 0 *
Ed
 1e-07 1 1 0
1  29 0 4.71238898038469 6.28318530717959
2  14 13 0 4.71238898038469 6.28318530717959
2  15 10 0 4.71238898038469 6.28318530717959
4 G1 10 0 13 0
0

0101000
+18 0 -55 0 *
Wi

0101100
-16 0 +13 0 +12 0 -54 0 *
Fa
0  1e-07 10 0

0101000
+11 0 *
Ed
 1e-07 1 1 0
1  30 0 5 50
2  16 13 0 5 50
4 G1 11 0 13 0
0

0101000
+18 0 -26 0 *
Wi

0101100
-48 0 -17 0 +9 0 +25 0 *
Fa
0  1e-07 11 0

0101000
+8 0 *
Wi

0101100
-32 0 +21 0 +27 0 -44 0 *
Fa
0  1e-07 12 0

0101000
+6 0 *
Wi

0101100
-12 0 +9 0 -24 0 -37 0 *
Fa
0  1e-07 13 0

0101000
+4 0 *
Sh

0101100
+63 0 +56 0 -51 0 +40 0 +35 0 -30 0 +22 0 -19 0 -14 0 -10 0 
+7 0 -5 0 -3 0 *
So

0100000
+2 0 *

+1 0 