<svg width="20" height="20" viewBox="0 0 20 20" fill="none" xmlns="http://www.w3.org/2000/svg">
<path fill-rule="evenodd" clip-rule="evenodd" d="M8.5 15C12.0899 15 15 12.0899 15 8.5C15 4.91015 12.0899 2 8.5 2C4.91015 2 2 4.91015 2 8.5C2 12.0899 4.91015 15 8.5 15ZM8.5 13C10.9853 13 13 10.9853 13 8.5C13 6.01472 10.9853 4 8.5 4C6.01472 4 4 6.01472 4 8.5C4 10.9853 6.01472 13 8.5 13Z" fill="#404040"/>
<path d="M13.1213 12.2929L12.4142 11.5858L11 13L11.7071 13.7071L13.1213 12.2929ZM16.2929 18.2929C16.6834 18.6834 17.3166 18.6834 17.7071 18.2929C18.0976 17.9024 18.0976 17.2692 17.7071 16.8787L16.2929 18.2929ZM11.7071 13.7071L16.2929 18.2929L17.7071 16.8787L13.1213 12.2929L11.7071 13.7071Z" fill="#404040"/>
</svg>
