DBRep_DrawableShape

CASCADE Topology V1, (c) Matra-Datavision
Locations 0
Curve2ds 42
1 0 0 0 1 
1 0 -1.9999999999999996 1 0 
1 1.5707963267948966 0 0 1 
1 6.0000000000000009 -1.9999999999999996 0 -1 
1 0 0 0 -1 
1 10 0 0 1 
1 0 -10 1 0 
1 0 10 1 0 
1 0 1 1 0 
7 0 0  5 6 2  1.5707963267948952 5.9999999999999982  1.2566370725975464 5.9999999999999671  0.94247773434706839 6.0000000000000311  0.6283185924478687 5.9999999999999876  0.31415925419724494 5.9999999999999956  3.3306690738754696e-016 5.9999999999999982 
 0 6 1 6
1 -4.7123889803846897 0 1 0 
2 8 1.9999999999999996 0 -1 -1 -0 2
1 1.5707963267948966 0 0 1 
1 0 8 1 0 
8 0 1
7 0 0  1 2 2  0 1.9999999999999996  1.5707963267948966 0 
 0 2 1 2
8 0 1
1 1 0 0 1 
1 0 0 0 1 
1 6.0000000000000009 1.9999999999999996 0 1 
1 0 8 1 0 
2 6.0000000000000009 6.0000000000000009 1 0 -0 1 4
1 0 0 0 1 
1 0 10 1 0 
1 0 0 0 1 
1 0 0 1 0 
1 0 0 0 -1 
1 0 0 0 1 
1 10 0 0 1 
1 0 10 1 0 
1 0 -10 1 0 
1 0 0 1 0 
1 1.5707963267948966 0 0 1 
1 6.0000000000000009 0 0 1 
1 0 0 1 0 
1 0 0 1 0 
1 10 0 0 -1 
1 0 0 0 1 
1 0 0 0 1 
1 0 3.9999999999999991 1 0 
1 0 0 1 0 
2 6.0000000000000009 -3.9999999999999991 1 0 -0 1 4
7 0 0  7 8 2  -1.1102230246251565e-016 6.0000000000000009  0.22439947525641685 6.2857142857142936  0.4487818689957081 6.5714068225654421  0.67324202068014338 6.8571983639074778  0.89755430611475551 7.1428016360925186  1.1220144577991866 7.4285931774345846  1.3463968515384814 7.714285714285686  1.5707963267948966 8 
 0 8 1 8
7 0 0  7 8 2  0 1.1102230246251565e-016  0 0.14285714285713741  0 0.28570341245831582  0 0.42859917898542021  0 0.57140082101457856  0 0.71429658754169612  0 0.85714285714285943  0 1 
 0 8 1 8
Curves 21
1 10 1.9999999999999996 0 0 0 1 
1 10 1.9999999999999996 6.0000000000000009 0 1 0 
1 10 0 0 -0 1 0 
1 10 10 0 0 0 1 
7 0 0  8 9 2  8 -2.2204460492503131e-016 6  8.3926990677466833 -2.4286128663675556e-016 5.999999999999992  8.7853983217013099 0.088121569677033551 5.9999999999999467  9.1550264223849176 0.26436389706842578 6.0000000000000488  9.4785175566297095 0.52148244337014005 5.9999999999998472  9.7356361029317 0.84497357761547554 6.0000000000000613  9.9118784303230871 1.2146016782985334 5.9999999999999316  10 1.6073009322534437 5.9999999999999893  10 1.9999999999999991 5.9999999999999982 
 0 9 1 9
8 4.7123889803846897 6.2831853071795862
2 8 1.9999999999999996 0 -0 -0 -1 0 -1 0 -1 0 0 2
1 8 -4.4408920985006262e-016 0 0 0 1 
7 0 0  8 9 2  6.0000000000000027 3.9999999999999991 10  6.7853981633974589 3.749999999999992 10.000000000000007  7.5707965740168897 3.5000000000000182 9.8237568441551701  8.3100529373402168 3.2499999999999645 9.4712722634857478  8.9570350231196905 3.0000000000000284 8.9570350231195004  9.4712722634856537 2.7499999999999898 8.3100529373403305  9.8237568441552874 2.4999999999999991 7.5707965740168035  10 2.2500000000000036 6.7853981633974607  10 1.9999999999999991 5.9999999999999982 
 0 9 1 9
1 6.0000000000000009 1.9999999999999996 10 0 1 0 
8 0 1.5707963267948966
2 6.0000000000000009 10 6.0000000000000009 0 1 0 0 -0 1 1 0 -0 4
1 0 10 0 1 0 -0 
1 0 0 0 1 0 -0 
1 0 0 0 -0 1 0 
1 0 10 10 1 0 -0 
1 0 10 0 0 0 1 
1 0 -8.8817841970012523e-016 6.0000000000000009 1 0 -0 
1 0 0 0 0 0 1 
1 0 0 10 -0 1 0 
1 0 3.9999999999999991 10 1 0 -0 
8 0 1.5707963267948966
2 0 3.9999999999999991 6.0000000000000009 1 0 -0 0 0 1 0 -1 0 4
7 0 0  6 7 2  6.0000000000000009 3.9999999999999991 10  6.3333333333333437 2.952802448803399 10.000000000000014  6.6666666666666341 1.9056939971794153 9.671089255918865  7.0000000000000391 0.98723940143925093 9.012760598560801  7.3333333333333055 0.32891074408108495 8.094306002820554  7.6666666666666767 -4.1910919179599865e-016 7.0471975511966054  8 -8.8817841970012523e-016 6.0000000000000018 
 0 7 1 7
Polygon3D 0
PolygonOnTriangulations 0
Surfaces 10
1 10 0 0 1 0 -0 0 0 1 0 -1 0 
2 8 1.9999999999999996 0 0 0 1 1 0 -0 0 -1 -0 2
2 6.0000000000000009 1.9999999999999996 6.0000000000000009 0 1 0 0 -0 1 1 0 -0 4
1 0 0 0 0 0 1 1 0 -0 -0 1 0 
1 0 10 0 -0 1 0 0 0 1 1 0 -0 
9 0 0 0 0 8 8 9 9 2 2 5.9999999999999991 3.9999999999999991 10  6.2500000000000187 3.2146018366025126 9.9999999999999893  6.4999999999999565 2.429203425983216 9.8237568441552199  6.7500000000000568 1.6899470626596333 9.4712722634856767  6.9999999999999005 1.0429649768805129 8.9570350231196016  7.2500000000000284 0.52872773651423288 8.3100529373402665  7.4999999999999343 0.17624315584480987 7.5707965740168524  7.7499999999999956 -5.1003241885970441e-016 6.7853981633974625  8 -2.2204460492503131e-016 6  
5.9999999999999991 3.9999999999999991 10  6.3347621538930401 3.2502766070271969 9.9999999999999893  6.6695243386887206 2.4934410825304472 9.8398832451925227  6.9985187675726168 1.7615468528952509 9.5186986323516916  7.3159789117631657 1.0832670296263507 9.0370773174351928  7.6168459502774342 0.51499720981983843 8.3772140756891407  7.8974939063293386 0.14131632062356853 7.598773232189731  8.1561116842783434 -0.024543691734169312 6.7853981633974554  8.3926990677466833 -2.4286128663675556e-016 5.999999999999992  
5.9999999999999991 3.9999999999999991 9.9999999999999982  6.494745540575213 3.3751975769462863 9.9999999999999911  6.9172663151217861 2.6422657885050849 9.8514021030762891  7.3578409515449197 1.9412366825626066 9.5525746101131386  7.769915146499816 1.2574804072934231 9.0942503848034306  8.1342727386980602 0.65707013890360166 8.4251863173669026  8.4252827230624021 0.25370986669176498 7.6187565594560365  8.6053230527731568 0.031053158872415998 6.7853981633974145  8.7853983217013099 0.088121569677033551 5.9999999999999467  
6.0000000000000009 3.9999999999999996 10  6.5463811236750322 3.4057957099882596 9.9999999999999964  7.067948189878698 2.7187769906351851 9.8583134178065865  7.6031617372531333 2.0443870704898788 9.5729001967700391  8.1149090746856096 1.3806789611932757 9.1285542252244287  8.5648623563435375 0.79499536589172204 8.4539696623736198  8.8927205581028375 0.40312856893734295 7.6307465558159011  9.0673148357251385 0.20367524951960561 6.7853981633975042  9.1550264223849176 0.26436389706842578 6.0000000000000488  
5.9999999999999982 3.9999999999999987 10  6.5737989485196895 3.4262010514803114 9.9999999999999964  7.1890091366005704 2.8109908633994567 9.8606171893832908  7.8079979622585283 2.1920020377414335 9.5796753923222777  8.411850319413114 1.5881496805870023 9.1399888386979935  8.9434226023594974 1.0565773976405279 8.4635641107090898  9.3076303085421515 0.69236969145792837 7.6347432212690496  9.4873836453498814 0.51261635465008215 6.7853981633973248  9.4785175566297095 0.52148244337014005 5.9999999999998472  
6.0000000000000018 3.9999999999999991 10  6.5942042900117457 3.4536188763249953 10.000000000000004  7.2812230093648918 2.932051810121409 9.8583134178065723  7.9556129295100391 2.3968382627469467 9.5729001967700587  8.6193210388068167 1.8850909253145487 9.1285542252244092  9.2050046341081977 1.4351376436566032 8.4539696623736411  9.5968714310627004 1.1072794418973766 7.6307465558158984  9.7963247504804478 0.93268516427517434 6.7853981633975149  9.7356361029317 0.84497357761547554 6.0000000000000613  
6.0000000000000027 3.9999999999999982 9.9999999999999964  6.6248024230536968 3.5052544594248114 10  7.357734211495031 3.0827336848781921 9.851402103076266  8.0587633174373554 2.6421590484550586 9.5525746101131688  8.7425195927068291 2.2300848535001649 9.0942503848033809  9.3429298610964562 1.8657272613019296 8.4251863173669328  9.7462901333084559 1.574717276937559 7.6187565594560125  9.9689468411277584 1.3946769472267351 6.7853981633974021  9.9118784303230871 1.2146016782985334 5.9999999999999316  
6.0000000000000027 3.9999999999999991 10  6.7497233929727738 3.6652378461069879 10.000000000000007  7.5065589174696594 3.3304756613112794 9.8398832451924747  8.2384531471045861 3.0014812324274622 9.5186986323517608  8.9167329703738503 2.6840210882368187 9.0370773174350916  9.4850027901800331 2.3831540497226684 8.3772140756892011  9.8586836793765187 2.102506093670689 7.598773232189683  10.024543691734161 1.8438883157217676 6.7853981633974518  10 1.6073009322534437 5.9999999999999893  
6.0000000000000027 3.9999999999999991 10  6.7853981633974589 3.749999999999992 10.000000000000007  7.5707965740168897 3.5000000000000182 9.8237568441551701  8.3100529373402168 3.2499999999999645 9.4712722634857478  8.9570350231196905 3.0000000000000284 8.9570350231195004  9.4712722634856537 2.7499999999999898 8.3100529373403305  9.8237568441552874 2.4999999999999991 7.5707965740168035  10 2.2500000000000036 6.7853981633974607  10 1.9999999999999991 5.9999999999999982  

0 9
1 9

0 9
1 9

1 0 0 0 -0 1 0 0 0 1 1 0 -0 
1 0 0 10 0 0 1 1 0 -0 -0 1 0 
1 0 0 0 1 0 -0 0 0 1 0 -1 0 
2 0 3.9999999999999991 6.0000000000000009 1 0 -0 0 0 1 0 -1 0 4
Triangulations 0

TShapes 53
Ve
0.0001
10 2 6
0 0

0101101
*
Ve
1e-007
10 2 0
0 0

0101101
*
Ed
 1e-007 1 1 0
1  1 0 0 6
2  1 2 0 0 6
2  2 1 0 0 6
4 G1 2 0 1 0
0

0101000
-53 0 +52 0 *
Ve
1e-007
10 10 6
0 0

0101101
*
Ed
 1e-007 1 1 0
1  2 0 -0 8
2  3 3 0 -0 8
2  4 1 0 -0 8
4 G1 3 0 1 0
0

0101000
+53 0 -50 0 *
Ve
1e-007
10 10 0
0 0

0101101
*
Ed
 1e-007 1 1 0
1  3 0 2 10
2  5 1 0 2 10
2  6 4 0 2 10
0

0101000
+52 0 -48 0 *
Ed
 1e-007 1 1 0
1  4 0 0 6
2  7 1 0 0 6
2  8 5 0 0 6
0

0101000
-50 0 +48 0 *
Wi

0101100
-51 0 -49 0 +47 0 +46 0 *
Fa
0  1e-007 1 0

0101000
+45 0 *
Ve
0.0001
8 -8.88178419700125e-016 6
0 0

0101101
*
Ed
 0.0001 1 1 0
1  5 0 0 1
2  9 6 0 0 1
2  10 2 0 0 1
4 G1 6 0 2 0
0

0101000
+43 0 -53 0 *
Ve
1e-007
8 -4.44089209850063e-016 0
0 0

0101101
*
Ed
 1e-007 1 1 0
1  6 0 4.71238898038469 6.28318530717959
2  11 2 0 4.71238898038469 6.28318530717959
2  12 4 0 4.71238898038469 6.28318530717959
0

0101000
+52 0 -41 0 *
Ed
 1e-007 1 1 0
1  7 0 0 6
2  13 2 0 0 6
2  14 7 0 0 6
4 G1 2 0 7 0
0

0101000
-43 0 +41 0 *
Wi

0101100
-51 0 +42 0 +40 0 +39 0 *
Fa
0  0 2 0

0101000
+38 0 *
Ve
0.0001
6 4 10
0 0

0101101
*
Ed
 0.0001 1 1 0
1  8 0 0 1
2  15 3 0 0 1
2  16 6 0 0 1
4 G1 6 0 3 0
0

0101000
+36 0 -53 0 *
Ve
1e-007
6 10 10
0 0

0101101
*
Ed
 1e-007 1 1 0
1  9 0 2 8
2  17 3 0 2 8
2  18 8 0 2 8
4 G1 3 0 8 0
0

0101000
+36 0 -34 0 *
Ed
 1e-007 1 1 0
1  10 0 0 1.5707963267949
2  19 3 0 0 1.5707963267949
2  20 5 0 0 1.5707963267949
0

0101000
+34 0 -50 0 *
Wi

0101100
+35 0 -33 0 +49 0 -32 0 *
Fa
0  0 3 0

0101000
+31 0 *
Ve
1e-007
0 10 0
0 0

0101101
*
Ed
 1e-007 1 1 0
1  11 0 0 10
2  21 5 0 0 10
2  22 4 0 0 10
0

0101000
-48 0 +29 0 *
Ve
1e-007
0 0 0
0 0

0101101
*
Ed
 1e-007 1 1 0
1  12 0 0 8
2  23 7 0 0 8
2  24 4 0 0 8
0

0101000
-41 0 +27 0 *
Ed
 1e-007 1 1 0
1  13 0 0 10
2  25 9 0 0 10
2  26 4 0 0 10
0

0101000
-29 0 +27 0 *
Wi

0101100
+47 0 -40 0 -28 0 +26 0 -25 0 *
Fa
0  1e-007 4 0

0101000
+24 0 *
Ve
1e-007
0 10 10
0 0

0101101
*
Ed
 1e-007 1 1 0
1  14 0 0 6
2  27 5 0 0 6
2  28 8 0 0 6
0

0101000
-34 0 +22 0 *
Ed
 1e-007 1 1 0
1  15 0 0 10
2  29 9 0 0 10
2  30 5 0 0 10
0

0101000
-22 0 +29 0 *
Wi

0101100
-46 0 +32 0 -28 0 +21 0 +20 0 *
Fa
0  1e-007 5 0

0101000
+19 0 *
Ve
1e-007
0 -8.88178419700125e-016 6
0 0

0101101
*
Ed
 1e-007 1 1 0
1  16 0 0 8
2  31 10 0 0 8
2  32 7 0 0 8
4 G1 10 0 7 0
0

0101000
+17 0 -43 0 *
Ed
 1e-007 1 1 0
1  17 0 0 6
2  33 9 0 0 6
2  34 7 0 0 6
0

0101000
-17 0 +27 0 *
Wi

0101100
-39 0 +16 0 -26 0 +15 0 *
Fa
0  1e-007 7 0

0101000
+14 0 *
Ve
1e-007
0 4 10
0 0

0101101
*
Ed
 1e-007 1 1 0
1  18 0 4 10
2  35 9 0 4 10
2  36 8 0 4 10
0

0101000
+12 0 -22 0 *
Ed
 1e-007 1 1 0
1  19 0 0 6
2  37 10 0 0 6
2  38 8 0 0 6
4 G1 10 0 8 0
0

0101000
+12 0 -36 0 *
Wi

0101100
-21 0 +33 0 -11 0 +10 0 *
Fa
0  1e-007 8 0

0101000
+9 0 *
Ed
 1e-007 1 1 0
1  20 0 0 1.5707963267949
2  39 10 0 0 1.5707963267949
2  40 9 0 0 1.5707963267949
0

0101000
+12 0 -17 0 *
Wi

0101100
-15 0 +7 0 +25 0 -11 0 +20 0 *
Fa
0  1e-007 9 0

0101000
+6 0 *
Ed
 0.0001 1 1 0
1  21 0 0 1
2  41 10 0 0 1
2  42 6 0 0 1
4 G1 10 0 6 0
0

0101000
+36 0 -43 0 *
Wi

0101100
+7 0 -10 0 +16 0 -4 0 *
Fa
0  0 10 0

0101000
+3 0 *
Sh

1101000
+44 0 -37 0 +30 0 -23 0 +18 0 -13 0 +8 0 -5 0 +2 0 *

+1 0 
0

